<svg id="New_Layer" data-name="New Layer" xmlns="http://www.w3.org/2000/svg" viewBox="0 0 780 156"><defs><style>.cls-1{fill:#283378;fill-rule:evenodd;}</style></defs><title>logo</title><path class="cls-1" d="M13.1,9c.38.64,47.37,82,73.2,126.79,7.44,12.87,8.34,14.34,8.73,13.83.26-.32,4.07-6.93,8.53-14.67,6.1-10.59,8.16-13.92,8.41-13.6s4,6.9,8.51,14.76c6.35,11.1,8.24,14.18,8.47,13.77s18.55-32.06,40.85-70.6S210.43,9.05,210.56,8.79c.12-.42-5.27-.48-43.42-.42l-43.61.1-5.72,10c-3.11,5.45-5.77,10-5.93,10s-2.83-4.43-6-9.95l-5.77-10-43.71-.1L12.62,8.31Zm90.11,14,6,10.2-1.25,2.25-1.22,2.24-21.37.16L64,38,74.59,56.41,85.14,74.87l-.57,1c-.36.55-3.5,6.1-7.06,12.35S71,99.61,71,99.67a30,30,0,0,1-2.73-4.3C58.8,79.1,20.67,13,20.67,12.93S37.91,12.8,59,12.8H97.24Zm99.39-9.47c-.23.42-9.66,16.75-21,36.36L156.9,92.65c-2.28,3.91-4.24,7-4.36,6.9s-3.41-5.78-7.26-12.52L138.22,74.8l10.37-18.26c5.71-10,10.4-18.32,10.4-18.48s-9.5-.23-21.09-.23H116.79l-1.19-2.08a11.21,11.21,0,0,1-1.22-2.44c0-.32,8.76-15.53,11.14-19.32l.73-1.19H203Zm-99.45,30c-.39.68-4.05,7-8.12,14L87.65,70.28,86.36,68.1c-4-6.84-14.66-25.52-14.66-25.65s7.22-.12,16.08-.12h16.07Zm20.5,15.05L133,74.8,122.56,93c-5.77,10-10.59,18.29-10.72,18.42s-5-8-10.87-18.17L90.31,74.8l8.22-14c4.52-7.77,8.79-15,9.46-16.27l1.29-2.15h5Zm20-2.43c-4.37,7.57-8,13.79-8.12,13.79S132,64.18,128,57.15s-7.58-13.22-7.93-13.8l-.64-1h32.12Zm-45.16,42L109,116.52l-6.81,11.91c-3.75,6.58-7,12.13-7.19,12.35S92.4,137.44,84.05,123c-5.81-10-10.52-18.39-10.52-18.58,0-.54,14-24.84,14.28-24.74S92.75,88,98.49,98.1Zm44.29-6.29c3.88,6.74,7.09,12.32,7.16,12.42s-4.75,8.5-10.63,18.68l-10.68,18.48-7.13-12.45-7.09-12.45L124.87,98c5.78-10.18,10.56-18.49,10.66-18.49S138.9,85.07,142.78,91.81Z"/><path class="cls-1" d="M497.11,70.6c-9.7,2.11-16,7-20.3,15.67-1.91,3.87-2.06,6.23-.35,7.34,1.51,1,13,5.27,14.52,5.37,2.86.25,3.16,0,5.17-3.57,2.61-4.87,4.42-6.12,8.69-6.38,2.81-.15,3.57,0,5.07,1,3.47,2.31,3.92,7.58,1,12.1-1.76,2.82-5.73,5.28-14.77,9.15-13.66,5.87-19.29,11.2-20.85,19.59-.7,3.61-.7,14.31-.05,16a3,3,0,0,0,2.37,1.76c2.61.75,51.18.75,53.29,0,2.31-.8,2.71-2.41,2.51-9.74-.2-9,1.51-8.29-19.29-8.29-16.37,0-16.77,0-16.77-1,0-1.3,2.41-2.51,8.54-4.27,13.31-3.82,23.15-9.94,26.17-16.27,3.66-7.74,3.71-17.94.15-25.42-2.86-6.08-9.9-11.25-17.63-13A53.41,53.41,0,0,0,497.11,70.6Z"/><path class="cls-1" d="M241.57,71.9a2,2,0,0,0-.9,1.61c0,1,12.76,53,16.83,68.67.8,3.11,1.6,5.07,2.26,5.63,1.5,1.2,4.42,1.5,12.5,1.3,9.35-.2,8.84.3,11.56-11.7,1.15-5,2.66-11.4,3.31-14.32,1.51-6.48,2.77-14.47,2.77-17.83,0-2.76.4-4.77,1-4.77.2,0,.5,2.41.65,5.37.4,6.18,1.21,11.2,3.37,20.55.85,3.56,2.21,9.54,3,13.26s1.91,7.13,2.36,7.63a6.65,6.65,0,0,0,2.62,1.41c1.95.55,15.27.6,16.87.1,2.87-.95,2.52.05,11.81-36.82,4.87-19.44,9-36.17,9.24-37.22.6-3.22-.05-3.42-9.54-3.42-10.05,0-10.9.3-11.71,3.87-.3,1.31-.95,5.22-1.5,8.69-2.67,16.53-3.57,22.81-4.07,28.38-1,10.3-1.11,11.45-1.46,11a51.27,51.27,0,0,1-.95-7.93c-.61-7.29-1.31-10.8-8.19-39.94A6.37,6.37,0,0,0,302,72.66c-.95-1-1.56-1.06-10.5-1.06-11.25,0-11.05-.1-12.35,5.43-.46,2-1.16,4.87-1.51,6.38s-1.71,7.18-3,12.56c-2.56,10.55-3.76,18.33-3.81,23.71,0,6.17-.81,3.91-1.41-4-.55-7.64-5.53-39.13-6.58-41.95A3.69,3.69,0,0,0,261,71.85C259.25,71.2,242.68,71.25,241.57,71.9Z"/><path class="cls-1" d="M348.92,72.61l-1.26,1.2v36.37c0,35.11,0,36.47,1,37.58s1.1,1.2,9.84,1.2,8.89,0,9.85-1.2.95-2.47.95-37.58V73.81L368,72.61c-1.21-1.26-1.36-1.26-9.55-1.26S350.12,71.35,348.92,72.61Z"/><path class="cls-1" d="M381.77,72.31l-1.2,1-.16,36.12c-.1,25.62.06,36.47.46,37.42.8,1.91,2.76,2.41,9.44,2.41,7.79,0,9.39-.5,10.1-2.91,1.35-4.87.2-32.05-1.76-41-1.41-6.48-1.41-6.78-.85-6.78.2,0,1.25,2.56,2.26,5.72,2.71,8.14,5.42,13.17,16.12,29.54,10.9,16.73,9.29,15.47,19.44,15.47,7.18,0,9.14-.45,9.95-2.41.4-1,.55-11.8.45-37.42l-.15-36.12-1.21-1c-1.05-.86-2-1-8.89-1-7.08,0-7.83.1-8.74,1s-1,1.65-1,15.27c0,15.57.35,19.09,3,28.33,1.71,5.83,1.66,5.62,1.06,5.62-.26,0-1.61-3-3.07-6.68-3.21-8.13-2.91-7.63-15.12-26.77-6.83-10.7-10.4-15.77-11.25-16.18s-4.37-.6-9.5-.6C383.83,71.35,382.83,71.45,381.77,72.31Z"/><path class="cls-1" d="M560.3,71.9a3.77,3.77,0,0,0-.65,2.21c0,1.31,14.21,59.53,16.92,69.53,1.41,5,2.06,5.27,11.16,5.47,8.69.2,11.25-.25,12.3-2.36s7.14-28.83,8-35.61a79,79,0,0,0,.8-8.14c0-2.61.66-3.37,1.21-1.41a21.5,21.5,0,0,1,.3,3.67c0,6,1.06,11.95,5.28,29.89,2.61,11.25,2.91,12,4.42,13.06,1.25.8,13.31,1.35,17.23.75,3.11-.45,4.06-1.46,5.17-5.78,4.17-16,17.13-68.46,17.13-69.47,0-2.26-.8-2.46-10.25-2.26-8.09.15-8.89.25-9.84,1.16s-1.16,1.5-3,13.31c-.55,3.47-1.56,9.9-2.26,14.32A194.74,194.74,0,0,0,632,121.43c0,.91-.2,1.66-.45,1.66s-.6-2.11-.81-4.67-.65-6.78-1.05-9.39c-.85-5.63-7.48-34.31-8.29-35.72a3.46,3.46,0,0,0-1.76-1.46c-1.4-.55-16.82-.65-18.68-.2a4,4,0,0,0-1.86,1.71c-.81,1.56-7.89,31.3-8.74,36.67-.25,1.81-.66,5.58-.86,8.39s-.5,5.07-.7,4.92-.5-3.31-.65-7.13c-.45-10.15-5.83-42-7.34-43.55-1-1-1.7-1.06-10.5-1.21C563.26,71.35,560.75,71.45,560.3,71.9Z"/><path class="cls-1" d="M667.6,72.31l-1.21,1v73.39l1.16,1.16c1.05,1.05,1.65,1.15,7.73,1.3,7.49.2,10.6-.1,11.71-1.2.65-.71.75-5.43.75-37.88V72.91l-1.11-.75c-.9-.66-2.71-.81-9.49-.81C669.66,71.35,668.65,71.45,667.6,72.31Z"/><path class="cls-1" d="M701.15,71.7c-.5.1-1.1.81-1.41,1.46s-.45,16-.45,37.37c0,34.76.05,36.12,1,37.23s1.15,1.2,9.09,1.2,8.14-.05,9.09-1.2,1-2.11,1-15.12c0-14.62-.61-22.11-2.52-30a20.23,20.23,0,0,1-.7-4.12c.5-.5,1.21,1,2.76,6,2.11,6.58,5,12.35,10.7,21.09,2.41,3.72,6.58,10.15,9.25,14.32,6.23,9.64,5.82,9.39,16,9.19,6.68-.15,7.79-.25,8.69-1.1,1.06-1,1.06-1,1.06-37.78V73.41l-1.31-1c-1.21-1-2-1.06-8.44-1.06a75.85,75.85,0,0,0-8.19.3c-2.11.56-2.26,2.21-2.06,18.14l.25,15,1.91,7c3.32,12.41,2.92,13-1.4,2.11A84.83,84.83,0,0,0,738,99.58C727.47,83,721.7,74.06,720.54,72.86s-1.3-1.26-9.84-1.36A93.88,93.88,0,0,0,701.15,71.7Z"/></svg>