<svg xmlns="http://www.w3.org/2000/svg" viewBox="0 0 741.46 500"><defs><style>.cls-1{isolation:isolate;}.cls-2{opacity:0.3;}.cls-16,.cls-17,.cls-18,.cls-21,.cls-3{fill:none;stroke-miterlimit:10;}.cls-3{stroke:#2c54ac;stroke-width:1px;stroke-dasharray:4.11 4.11;}.cls-4{fill:#7d7af9;opacity:0.25;mix-blend-mode:overlay;}.cls-5{opacity:0.21;}.cls-6{fill:#0a2a6b;}.cls-7{fill:#2c54ac;}.cls-8{fill:#55a3f3;}.cls-9{fill:#fff;}.cls-10{fill:#ff4648;}.cls-11{opacity:0.14;}.cls-12{fill:#ff8775;}.cls-13{opacity:0.5;}.cls-14{fill:#9ddcf9;}.cls-15{opacity:0.4;}.cls-16,.cls-17,.cls-18{stroke:#55a3f3;}.cls-16{stroke-width:4.35px;}.cls-17,.cls-18{stroke-width:0.65px;}.cls-18{stroke-dasharray:3.95 3.95;}.cls-19{opacity:0.19;}.cls-20{opacity:0.22;}.cls-21{stroke:#fff;stroke-width:0.7px;stroke-dasharray:2.81;}.cls-22{opacity:0.13;}.cls-23{fill:#73c3ff;}</style></defs><title>landing-vid-bg</title><g class="cls-1"><g id="BACKGROUND"><g class="cls-2"><path class="cls-3" d="M405.45,83.56c-19.35,4.91-36.4,16.1-54.58,24.34a189,189,0,0,1-69.28,16.6c-25.3,1.14-50.87-2.82-75.88,1.17-41.79,6.66-79,37-93.9,76.58s-7,86.92,19.94,119.52c9.18,11.09,20.32,20.51,28.93,32.06,28.23,37.88,26.89,95,63.34,125.07,19.86,16.39,47.7,20.84,73,16.31s48.58-17.14,69.74-31.82c20.4-14.15,41.25-31.1,66.08-31.85,17.28-.53,33.81,7,51,8.49,36.67,3.08,71.79-23.92,84.48-58.46s5.6-74.15-12.32-106.29c-10.77-19.32-25.44-37-30.69-58.52-3.45-14.1-2.56-28.85-3.65-43.32C517.51,117.31,462.36,69.14,405.45,83.56Z"/></g><path class="cls-4" d="M529.73,63.86c-25.38,2.18-48.79,11.07-73.18,16.8a298.22,298.22,0,0,1-90.72,6.8c-32.39-2.52-64.35-10.25-96.81-9.83-54.21.7-106.13,26.11-131.12,64.16s-22.06,87.29,7.38,124.33c10,12.61,22.78,23.8,32,36.78,30.24,42.59,19.92,100.44,61.81,136.27,22.82,19.54,57.6,28.1,90.56,27.19s64.45-10.36,93.6-22.2c28.12-11.42,57.23-25.6,89-22.77,22.09,2,42,12.08,63.72,16.05,46.23,8.46,95-13.88,116.4-47.13s18.3-74.52.33-109.78c-10.8-21.19-26.82-41.32-30.27-63.91-2.26-14.83,1.1-29.68,1.89-44.55C667.34,114.43,604.37,57.47,529.73,63.86Z"/></g><g id="OBJECTS"><g class="cls-5"><path class="cls-6" d="M726.06,130.74a8.6,8.6,0,0,0-8.61-8.61H623.77a8.6,8.6,0,0,0-8.6,8.61v5H726.06Z"/><path class="cls-7" d="M615.17,135.7v57.42a8.6,8.6,0,0,0,8.6,8.6h93.68a8.6,8.6,0,0,0,8.61-8.6V135.7Z"/><circle class="cls-8" cx="688.21" cy="128.92" r="3.21"/><circle class="cls-9" cx="701" cy="128.92" r="3.21"/><circle class="cls-10" cx="713.8" cy="128.92" r="3.21"/><path class="cls-9" d="M688.35,149.59H625.7a2.1,2.1,0,0,1-2.1-2.11h0a2.1,2.1,0,0,1,2.1-2.1h62.65a2.1,2.1,0,0,1,2.1,2.1h0A2.1,2.1,0,0,1,688.35,149.59Z"/><path class="cls-9" d="M713.06,149.59H697.42a2.1,2.1,0,0,1-2.11-2.11h0a2.1,2.1,0,0,1,2.11-2.1h15.64a2.11,2.11,0,0,1,2.11,2.1h0A2.11,2.11,0,0,1,713.06,149.59Z"/><path class="cls-9" d="M650.42,157.59h22.64a2.11,2.11,0,0,0,2.11-2.1h0a2.12,2.12,0,0,0-2.11-2.11H650.42a2.11,2.11,0,0,0-2.11,2.11h0A2.1,2.1,0,0,0,650.42,157.59Z"/><path class="cls-9" d="M681.42,157.59h31.64a2.11,2.11,0,0,0,2.11-2.1h0a2.12,2.12,0,0,0-2.11-2.11H681.42a2.11,2.11,0,0,0-2.11,2.11h0A2.1,2.1,0,0,0,681.42,157.59Z"/><path class="cls-9" d="M625.7,157.59h15.65a2.1,2.1,0,0,0,2.1-2.1h0a2.11,2.11,0,0,0-2.1-2.11H625.7a2.11,2.11,0,0,0-2.1,2.11h0A2.1,2.1,0,0,0,625.7,157.59Z"/><path class="cls-9" d="M688.35,165.59H625.7a2.1,2.1,0,0,1-2.1-2.1h0a2.1,2.1,0,0,1,2.1-2.1h62.65a2.1,2.1,0,0,1,2.1,2.1h0A2.1,2.1,0,0,1,688.35,165.59Z"/><path class="cls-9" d="M713.06,165.59H697.42a2.1,2.1,0,0,1-2.11-2.1h0a2.1,2.1,0,0,1,2.11-2.1h15.64a2.11,2.11,0,0,1,2.11,2.1h0A2.11,2.11,0,0,1,713.06,165.59Z"/><path class="cls-9" d="M650.42,173.59h22.64a2.11,2.11,0,0,0,2.11-2.1h0a2.11,2.11,0,0,0-2.11-2.1H650.42a2.1,2.1,0,0,0-2.11,2.1h0A2.1,2.1,0,0,0,650.42,173.59Z"/><path class="cls-9" d="M681.42,173.59h31.64a2.11,2.11,0,0,0,2.11-2.1h0a2.11,2.11,0,0,0-2.11-2.1H681.42a2.1,2.1,0,0,0-2.11,2.1h0A2.1,2.1,0,0,0,681.42,173.59Z"/><path class="cls-9" d="M625.7,173.59h15.65a2.1,2.1,0,0,0,2.1-2.1h0a2.1,2.1,0,0,0-2.1-2.1H625.7a2.1,2.1,0,0,0-2.1,2.1h0A2.1,2.1,0,0,0,625.7,173.59Z"/><path class="cls-9" d="M688.35,181.6H625.7a2.11,2.11,0,0,1-2.1-2.11h0a2.1,2.1,0,0,1,2.1-2.1h62.65a2.1,2.1,0,0,1,2.1,2.1h0A2.11,2.11,0,0,1,688.35,181.6Z"/><path class="cls-9" d="M713.06,181.6H697.42a2.11,2.11,0,0,1-2.11-2.11h0a2.1,2.1,0,0,1,2.11-2.1h15.64a2.11,2.11,0,0,1,2.11,2.1h0A2.12,2.12,0,0,1,713.06,181.6Z"/><path class="cls-9" d="M650.42,189.6h22.64a2.11,2.11,0,0,0,2.11-2.11h0a2.11,2.11,0,0,0-2.11-2.1H650.42a2.1,2.1,0,0,0-2.11,2.1h0A2.1,2.1,0,0,0,650.42,189.6Z"/><path class="cls-9" d="M681.42,189.6h31.64a2.11,2.11,0,0,0,2.11-2.11h0a2.11,2.11,0,0,0-2.11-2.1H681.42a2.1,2.1,0,0,0-2.11,2.1h0A2.1,2.1,0,0,0,681.42,189.6Z"/><path class="cls-9" d="M625.7,189.6h15.65a2.1,2.1,0,0,0,2.1-2.11h0a2.1,2.1,0,0,0-2.1-2.1H625.7a2.1,2.1,0,0,0-2.1,2.1h0A2.1,2.1,0,0,0,625.7,189.6Z"/></g><g class="cls-11"><path class="cls-12" d="M722.82,443.44a7.69,7.69,0,0,0-7.69-7.69H589.49a7.68,7.68,0,0,0-7.68,7.69v4.43h141Z"/><path class="cls-7" d="M581.81,447.87V483.8a7.68,7.68,0,0,0,7.68,7.68H715.13a7.68,7.68,0,0,0,7.69-7.68V447.87Z"/><path class="cls-8" d="M691.87,441.81a2.86,2.86,0,1,1-2.86-2.87A2.86,2.86,0,0,1,691.87,441.81Z"/><path class="cls-9" d="M703.3,441.81a2.86,2.86,0,1,1-2.86-2.87A2.86,2.86,0,0,1,703.3,441.81Z"/><path class="cls-10" d="M714.73,441.81a2.86,2.86,0,1,1-2.86-2.87A2.86,2.86,0,0,1,714.73,441.81Z"/><path class="cls-9" d="M602.82,456.34l2.6,5.26a1,1,0,0,0,.75.55L612,463a1,1,0,0,1,.56,1.71l-4.2,4.1a1,1,0,0,0-.29.89l1,5.78a1,1,0,0,1-1.46,1.06l-5.19-2.73a1,1,0,0,0-.93,0l-5.2,2.73a1,1,0,0,1-1.45-1.06l1-5.78a1,1,0,0,0-.29-.89l-4.2-4.1a1,1,0,0,1,.56-1.71l5.8-.84a1,1,0,0,0,.76-.55l2.59-5.26A1,1,0,0,1,602.82,456.34Z"/><g class="cls-13"><path class="cls-14" d="M612.54,464.7A1,1,0,0,0,612,463l-5.81-.84a1,1,0,0,1-.75-.55l-.1-.2L595,476.22a1,1,0,0,0,1.28.31l5.2-2.73a1,1,0,0,1,.93,0l5.19,2.73a1,1,0,0,0,1.46-1.06l-1-5.78a1,1,0,0,1,.28-.89Z"/></g><path class="cls-9" d="M628.55,456.34l2.59,5.26a1,1,0,0,0,.76.55l5.8.84a1,1,0,0,1,.56,1.71l-4.2,4.1a1,1,0,0,0-.29.89l1,5.78a1,1,0,0,1-1.45,1.06l-5.2-2.73a1,1,0,0,0-.93,0L622,476.53a1,1,0,0,1-1.46-1.06l1-5.78a1,1,0,0,0-.29-.89l-4.2-4.1a1,1,0,0,1,.56-1.71l5.8-.84a1,1,0,0,0,.76-.55l2.6-5.26A1,1,0,0,1,628.55,456.34Z"/><g class="cls-13"><path class="cls-14" d="M638.26,464.7a1,1,0,0,0-.56-1.71l-5.8-.84a1,1,0,0,1-.76-.55l-.1-.2-10.33,14.82a1,1,0,0,0,1.28.31l5.19-2.73a1,1,0,0,1,.93,0l5.2,2.73a1,1,0,0,0,1.45-1.06l-1-5.78a1,1,0,0,1,.29-.89Z"/></g><path class="cls-9" d="M654.27,456.34l2.6,5.26a1,1,0,0,0,.75.55l5.81.84a1,1,0,0,1,.55,1.71l-4.2,4.1a1,1,0,0,0-.29.89l1,5.78a1,1,0,0,1-1.46,1.06l-5.19-2.73a1,1,0,0,0-.94,0l-5.19,2.73a1,1,0,0,1-1.45-1.06l1-5.78a1,1,0,0,0-.29-.89l-4.2-4.1a1,1,0,0,1,.55-1.71l5.81-.84a1,1,0,0,0,.75-.55l2.6-5.26A1,1,0,0,1,654.27,456.34Z"/><g class="cls-13"><path class="cls-14" d="M664,464.7a1,1,0,0,0-.55-1.71l-5.81-.84a1,1,0,0,1-.75-.55l-.1-.2-10.34,14.82a1,1,0,0,0,1.28.31l5.19-2.73a1,1,0,0,1,.94,0l5.19,2.73a1,1,0,0,0,1.46-1.06l-1-5.78a1,1,0,0,1,.29-.89Z"/></g><path class="cls-9" d="M680,456.34l2.6,5.26a1,1,0,0,0,.76.55l5.8.84a1,1,0,0,1,.56,1.71l-4.2,4.1a1,1,0,0,0-.29.89l1,5.78a1,1,0,0,1-1.46,1.06l-5.19-2.73a1,1,0,0,0-.93,0l-5.2,2.73a1,1,0,0,1-1.45-1.06l1-5.78a1,1,0,0,0-.29-.89l-4.2-4.1A1,1,0,0,1,669,463l5.8-.84a1,1,0,0,0,.76-.55l2.59-5.26A1,1,0,0,1,680,456.34Z"/><g class="cls-13"><path class="cls-14" d="M689.71,464.7a1,1,0,0,0-.56-1.71l-5.8-.84a1,1,0,0,1-.76-.55l-.1-.2-10.34,14.82a1,1,0,0,0,1.28.31l5.2-2.73a1,1,0,0,1,.93,0l5.19,2.73a1,1,0,0,0,1.46-1.06l-1-5.78a1,1,0,0,1,.29-.89Z"/></g><path class="cls-9" d="M705.72,456.34l2.59,5.26a1,1,0,0,0,.76.55l5.8.84a1,1,0,0,1,.56,1.71l-4.2,4.1a1,1,0,0,0-.29.89l1,5.78a1,1,0,0,1-1.45,1.06l-5.2-2.73a1,1,0,0,0-.93,0l-5.19,2.73a1,1,0,0,1-1.46-1.06l1-5.78a1,1,0,0,0-.28-.89l-4.21-4.1a1,1,0,0,1,.56-1.71l5.81-.84a1,1,0,0,0,.75-.55l2.6-5.26A1,1,0,0,1,705.72,456.34Z"/><g class="cls-13"><path class="cls-14" d="M715.43,464.7a1,1,0,0,0-.56-1.71l-5.8-.84a1,1,0,0,1-.76-.55l-.1-.2-10.33,14.82a1,1,0,0,0,1.28.31l5.19-2.73a1,1,0,0,1,.93,0l5.2,2.73a1,1,0,0,0,1.45-1.06l-1-5.78a1,1,0,0,1,.29-.89Z"/></g></g><g class="cls-15"><polyline class="cls-16" points="325.83 35.76 335.84 45.78 360.98 20.64"/><polyline class="cls-16" points="296.32 35.76 306.33 45.78 331.47 20.64"/></g><g class="cls-5"><path class="cls-17" d="M492.11-1.84,489.94,5.7A24.4,24.4,0,0,0,484.31,8l-6.95-3.82-6.21,6.13L475,17.17a24.55,24.55,0,0,0-2.32,5.56l-7.64,2.14v8.69l7.64,2.14A24.55,24.55,0,0,0,475,41.26l-3.86,6.86,6.21,6.13,6.95-3.82a24.4,24.4,0,0,0,5.63,2.3l2.17,7.54h8.8l2.17-7.54a24.76,24.76,0,0,0,5.63-2.3l6.95,3.82,6.21-6.13L518,41.26a24.13,24.13,0,0,0,2.33-5.56L528,33.56V24.87l-7.64-2.14A24.13,24.13,0,0,0,518,17.17l3.87-6.86-6.21-6.13L508.71,8a24.76,24.76,0,0,0-5.63-2.3l-2.17-7.54ZM496.51,13a16.23,16.23,0,1,1-16.44,16.23A16.37,16.37,0,0,1,496.51,13Z"/><ellipse class="cls-18" cx="496.51" cy="29.22" rx="21.5" ry="21.23"/></g><g class="cls-19"><path class="cls-7" d="M556.24,25.67,555,30.08a15.12,15.12,0,0,0-3.3,1.34l-4.06-2.23L544,32.78l2.27,4A13.88,13.88,0,0,0,544.88,40L540.4,41.3v5.08l4.48,1.25a14,14,0,0,0,1.36,3.26l-2.27,4,3.64,3.59,4.06-2.23A15.12,15.12,0,0,0,555,57.6L556.24,62h5.15l1.27-4.41A14.85,14.85,0,0,0,566,56.26L570,58.49l3.63-3.59-2.26-4a14.4,14.4,0,0,0,1.36-3.26l4.47-1.25V41.3L572.75,40a14.32,14.32,0,0,0-1.36-3.25l2.26-4L570,29.19,566,31.42a14.85,14.85,0,0,0-3.29-1.34l-1.27-4.41Zm12.19,18.17a9.62,9.62,0,1,1-9.62-9.5A9.58,9.58,0,0,1,568.43,43.84Z"/></g><g class="cls-20"><path class="cls-7" d="M138.94,365.49l-2.7,9.39a31,31,0,0,0-7,2.85L120.59,373l-7.73,7.63,4.81,8.54a29.87,29.87,0,0,0-2.89,6.91l-9.51,2.67v10.81l9.51,2.66a30.13,30.13,0,0,0,2.89,6.92l-4.81,8.53,7.73,7.63,8.64-4.75a31,31,0,0,0,7,2.86l2.7,9.38h10.95l2.69-9.38a30.8,30.8,0,0,0,7-2.86l8.65,4.75,7.72-7.63-4.81-8.53a30.16,30.16,0,0,0,2.9-6.92l9.5-2.66V398.73l-9.5-2.67a29.9,29.9,0,0,0-2.9-6.91l4.81-8.54L168.24,373l-8.65,4.75a30.78,30.78,0,0,0-7-2.85l-2.69-9.39Zm5.47,18.45A20.19,20.19,0,1,1,124,404.13,20.37,20.37,0,0,1,144.41,383.94Z"/><ellipse class="cls-21" cx="144.41" cy="404.13" rx="25.75" ry="25.42"/></g><g class="cls-22"><path class="cls-7" d="M233.54,40.59a8.61,8.61,0,0,0-8.61-8.6H131.25a8.61,8.61,0,0,0-8.61,8.6v5h110.9Z"/><path class="cls-14" d="M122.64,45.56V103a8.61,8.61,0,0,0,8.61,8.61h93.68a8.61,8.61,0,0,0,8.61-8.61V45.56Z"/><circle class="cls-8" cx="195.68" cy="38.77" r="3.21"/><circle class="cls-9" cx="208.48" cy="38.77" r="3.21"/><circle class="cls-10" cx="221.28" cy="38.77" r="3.21"/><path class="cls-12" d="M189.11,70.81H174.35a1.71,1.71,0,0,1-.87-3.18c6.44-3.8,9.78-8.23,10.22-13.55a3.65,3.65,0,0,1,3.66-3.29,7.2,7.2,0,0,1,7.1,7.21h0v.57c0,4.66-1.38,7.63-3.92,11.47A1.71,1.71,0,0,1,189.11,70.81Z"/><path class="cls-12" d="M207.2,72.74a5.35,5.35,0,0,0-5.35-5.34h-27.5a1.8,1.8,0,0,0-.87.23c-1.93,1.15-3.88,2.09-5.44,2.84l-1.53.75a1.71,1.71,0,0,0-.95,1.52V94.59a1.7,1.7,0,0,0,.95,1.52c6.89,3.45,12.62,3.87,19.31,3.87l3.18,0,3.75,0h5.4a5.34,5.34,0,0,0,4.6-8.07,5.32,5.32,0,0,0,1.82-7.28,5.34,5.34,0,0,0,1.17-8.17A5.31,5.31,0,0,0,207.2,72.74Z"/><path id="SVGCleanerId_0" data-name="SVGCleanerId 0" class="cls-23" d="M161.67,91v9h-3.41V91a1.71,1.71,0,1,1,3.41,0Z"/><path id="SVGCleanerId_0-2" data-name="SVGCleanerId 0" class="cls-23" d="M161.67,91v9h-3.41V91a1.71,1.71,0,1,1,3.41,0Z"/><path class="cls-7" d="M167.25,67.4H152.68a1.7,1.7,0,0,0-1.7,1.7V98.23a1.74,1.74,0,0,0,1.7,1.73h10.93a5.4,5.4,0,0,0,4.78-3,5.28,5.28,0,0,0,.56-2.38V69.1A1.7,1.7,0,0,0,167.25,67.4Z"/><path class="cls-6" d="M161.67,90.86V100h-3.41v-9.1a1.71,1.71,0,1,1,3.41,0Z"/></g></g></g></svg>