<svg xmlns="http://www.w3.org/2000/svg" viewBox="0 0 500 420"><defs><style>.cls-1{fill:#d8e2e5;}.cls-2{fill:#fff;}.cls-3{fill:#b1c1c9;}.cls-4{fill:#b1cfdd;}.cls-5{fill:#808285;}.cls-6{fill:#d4d6d8;}.cls-7{fill:#112b46;}.cls-8{fill:#b7babc;}.cls-9{fill:#a1cfe2;}.cls-10{fill:#b79370;}.cls-11{fill:#1e4059;}.cls-12{fill:#16344f;}.cls-13{fill:#bcbec0;}.cls-14{fill:#d1d3d4;}.cls-15{fill:#d1baa3;}.cls-16{fill:#e6e7e8;}.cls-17{fill:#e8d8c8;}.cls-18{fill:#dbdcdd;}.cls-19{fill:#bc9d84;}.cls-20{fill:#e8ceb1;}.cls-21{fill:#f4dec6;}</style></defs><title>landing-banner</title><g id="OBJECTS"><path class="cls-1" d="M277.47,316.12s49.77,36.62,78.09-20.79C302.44,259.61,277.47,316.12,277.47,316.12Z"/><path class="cls-2" d="M302.11,289.8s5.83,3.46,11.71,6.9c2.94,1.73,5.89,3.45,8.13,4.73,1.13.64,2.07,1.18,2.75,1.55l.2.11-24.17,6.44-12.8-7.42-.39.67,12.13,7-20.42,5.44.2.75,31.83-8.48-10.41,18,.67.39,10.8-18.64,20.86-5.55-7.38,19.36.71.27,7.57-19.87,13.83-3.69-.2-.75L326,302.79l-.4-.19c-1.77-.93-7.56-4.3-12.9-7.44-2.67-1.56-5.22-3.07-7.11-4.19l-2.27-1.34-.85-.5Z"/><path class="cls-1" d="M225.47,310.18s-49.76,36.61-78.09-20.79C200.51,253.67,225.47,310.18,225.47,310.18Z"/><path class="cls-2" d="M200.84,283.86s-5.84,3.45-11.72,6.9c-2.94,1.72-5.89,3.45-8.13,4.73L178.25,297l-.21.11,24.17,6.43L215,296.16l.39.68-12.13,7,20.41,5.43-.2.76-31.82-8.48,10.41,18-.68.39L190.6,301.3l-20.85-5.56,7.37,19.37-.7.27-7.58-19.88L155,291.82l.2-.75,21.71,5.78.39-.19c1.77-.93,7.57-4.31,12.9-7.44l7.12-4.19,2.26-1.34.85-.5Z"/><path class="cls-1" d="M118.39,112s-82,25.32-41.33,104.44C160.89,186.58,118.39,112,118.39,112Z"/><path class="cls-2" d="M127.44,161.25s-8.69,3.66-17.41,7.38c-4.35,1.86-8.72,3.73-12,5.18-1.65.72-3,1.33-4,1.78l-.29.14,12.79-32.33,18.88-8.17-.43-1L107.1,142l10.8-27.3-1-.4-16.84,42.56L88.58,130.36l-1,.43,11.89,27.48-11,27.89L72.91,161.91l-.89.56,16,24.89-7.33,18.51,1,.4,11.49-29,.54-.28c2.5-1.21,11.06-4.89,19-8.26,4-1.69,7.75-3.3,10.56-4.49l3.37-1.42,1.27-.53Z"/><path class="cls-3" d="M26.49,173s-18,72.3,59,77.53C101,174.92,26.49,173,26.49,173Z"/><path class="cls-2" d="M67.15,188.41s-1.18,8.1-2.32,16.24c-.57,4.07-1.13,8.15-1.54,11.24-.2,1.54-.36,2.84-.46,3.77l0,.28-18.28-24,2.4-17.69-.93-.13-2.27,16.76L28.28,174.61l-.74.57,24.06,31.6-24.82-3.36-.12.93,25.74,3.49,15.77,20.7-25,.67,0,.91,25.63-.68,10.46,13.73.75-.56L63.65,221.05c0-.1,0-.27,0-.52.22-2.41,1.33-10.42,2.37-17.81.52-3.69,1-7.24,1.41-9.86.19-1.31.34-2.38.45-3.14l.17-1.17Z"/><path class="cls-4" d="M54.53,209.07S3.61,295.28,100.8,331.58C149.72,240.1,54.53,209.07,54.53,209.07Z"/><path class="cls-2" d="M101,244.49s-4.62,10-9.22,20c-2.3,5-4.59,10.06-6.3,13.88-.85,1.92-1.56,3.52-2,4.68l-.15.35L69,245.49l9.87-21.86-1.15-.51-9.35,20.7-12.1-32-1.18.45,18.86,49.94L43.24,248.32l-.52,1.15,31.82,14.38L86.9,296.56l-32.43-8.73L54.15,289l33.28,9,8.2,21.7,1.18-.44L84,285.18a6.81,6.81,0,0,1,.24-.66c1.21-3,5.71-12.91,9.89-22,2.09-4.56,4.1-8.93,5.6-12.16.74-1.61,1.36-2.94,1.79-3.87s.67-1.44.67-1.45Z"/><path class="cls-1" d="M485.71,214.26S424.24,208,429,271.84C492.91,275.62,485.71,214.26,485.71,214.26Z"/><path class="cls-2" d="M477.86,249.45h-13.6c-3.4,0-6.82,0-9.4.06-1.3,0-2.38,0-3.15.07h-.24L469,231.76l14.79-.11v-.78l-14,.11,14.82-15.06-.55-.54L461,238.85l-.16-20.77H460l.16,21.54L445,255l-3.48-20.43-.75.13,3.58,21-10.05,10.2.56.55,15.76-16,.43,0c2-.1,8.71-.14,14.9-.15h11.87Z"/><path class="cls-3" d="M448.8,132.09S360.36,179,424.28,260.74C513.78,208.28,448.8,132.09,448.8,132.09Z"/><path class="cls-2" d="M469.93,186.57s-9.15,6.09-18.32,12.25c-4.58,3.09-9.17,6.19-12.62,8.56-1.73,1.18-3.17,2.19-4.19,2.92l-.31.22,7.6-39.82,19.83-13.49-.71-1-18.79,12.77,6.41-33.63-1.24-.23-10,52.43-18.92-27.83-1.05.71,19.63,28.87-6.55,34.36-23.09-24.38-.89.84,23.7,25-4.35,22.8,1.24.23,6.82-35.76c.1-.09.28-.23.56-.44,2.6-1.93,11.6-8,19.92-13.61l11.13-7.45,3.55-2.36,1.33-.88Z"/><path class="cls-1" d="M352.44,88.38s-24.17,56.86,38.22,71.2C413.19,99.66,352.44,88.38,352.44,88.38Z"/><path class="cls-2" d="M383.73,106.29s-2,6.47-4,13c-1,3.26-2,6.53-2.73,9-.37,1.23-.67,2.27-.87,3a2,2,0,0,0-.06.23l-11.83-22,4.27-14.17-.75-.23-4,13.42-10-18.61-.68.37,15.57,29-19.88-6-.22.74,20.63,6.22,10.2,19-20.54-2.73-.1.76,21.08,2.79,6.77,12.61.69-.37-10.63-19.79.1-.43c.5-1.93,2.45-8.35,4.27-14.26.91-3,1.79-5.8,2.44-7.89.33-1,.59-1.91.78-2.51s.29-.94.29-1Z"/><path class="cls-1" d="M235.77,154.57h9.45a9.08,9.08,0,0,1,9-8.35h14.17a12.18,12.18,0,0,1-.45-3.27,12.37,12.37,0,0,1,12.34-12.34H302A12.37,12.37,0,0,1,314.35,143a12.18,12.18,0,0,1-.45,3.27h1.93a9.06,9.06,0,0,1,9,8.35h2.84a11.72,11.72,0,0,1,0,23.44h-91.9a11.72,11.72,0,0,1,0-23.44Z"/><path class="cls-4" d="M208.89,141.44a13.23,13.23,0,0,0-1.65-5.63l1.63-.91a15.15,15.15,0,0,0-3.15-3.94l-1.25,1.4a13.11,13.11,0,0,0-5.14-2.83l.51-1.79h0a15.37,15.37,0,0,0-4.11-.57c-.29,0-.59,0-.88,0l.11,1.86a13.32,13.32,0,0,0-5.64,1.65l-.91-1.64a15.36,15.36,0,0,0-3.94,3.16l1.4,1.24a13.34,13.34,0,0,0-2.83,5.15l-1.79-.51v0a15,15,0,0,0-.57,4.11c0,.29,0,.58,0,.87l1.87-.11a13.26,13.26,0,0,0,1.64,5.64l-1.64.91a15,15,0,0,0,3.16,3.94l1.24-1.4a13.26,13.26,0,0,0,5.14,2.84l-.51,1.79h.05a14.94,14.94,0,0,0,4.11.58q.45,0,.9,0l-.11-1.87a13.23,13.23,0,0,0,5.63-1.65l.92,1.63a15.14,15.14,0,0,0,3.93-3.16l-1.4-1.24a13.28,13.28,0,0,0,2.83-5.15l1.79.51h0a15,15,0,0,0,.57-4.11c0-.3,0-.6,0-.9ZM192.44,153.8h0l.09-.32Zm10.95-9.39a8,8,0,0,1-7.68,5.81,8.17,8.17,0,0,1-2.17-.3,8,8,0,0,1-5.82-7.68,7.86,7.86,0,0,1,.31-2.18,8,8,0,0,1,7.67-5.81,7.85,7.85,0,0,1,2.18.3,8,8,0,0,1,5.82,7.68A7.86,7.86,0,0,1,203.39,144.41Z"/><path class="cls-4" d="M229,212.15a21.15,21.15,0,0,0-2.64-9l2.62-1.47a24.08,24.08,0,0,0-5.07-6.31l-2,2.24a21.17,21.17,0,0,0-8.25-4.54l.81-2.87h0a23.94,23.94,0,0,0-6.6-.92c-.48,0-.95,0-1.42,0l.18,3a21.2,21.2,0,0,0-9.05,2.64l-1.46-2.63a24.46,24.46,0,0,0-6.32,5.06l2.25,2a21,21,0,0,0-4.55,8.26l-2.88-.82v.05a24.33,24.33,0,0,0-.92,6.6c0,.47,0,.94,0,1.4l3-.17a21,21,0,0,0,2.63,9l-2.63,1.46a24.5,24.5,0,0,0,5.06,6.33l2-2.25A21.15,21.15,0,0,0,202,233.8l-.82,2.87.08,0a23.82,23.82,0,0,0,6.59.92c.49,0,1,0,1.46,0l-.18-3a21.17,21.17,0,0,0,9-2.65l1.46,2.62a24.5,24.5,0,0,0,6.32-5.07l-2.25-2a21.07,21.07,0,0,0,4.53-8.26l2.88.81h0a23.93,23.93,0,0,0,.91-6.6c0-.48,0-1,0-1.44ZM202.58,232h0l.15-.53Zm17.58-15.08a12.79,12.79,0,1,1,.49-3.5A12.48,12.48,0,0,1,220.16,216.91Z"/><path class="cls-5" d="M81.49,339.07v.11H80.33A6.42,6.42,0,0,0,81.49,339.07Z"/><path class="cls-6" d="M320.79,272.47c.16,5.51-1,7.41-1,7.41s-3.07-1.29-4.09-3.24Z"/><path class="cls-7" d="M332,280.58c-4.13,1.69-7.5-3.94-7.5-3.94l-.16-.22,9.81-7.47q-.13,5.24-.79,10.93A9.33,9.33,0,0,1,332,280.58Z"/><path class="cls-8" d="M156,283.4a21.35,21.35,0,0,0,4.71-3.91l-4.32-5.33-2.15,3Z"/><path class="cls-1" d="M192.58,64.52H186.4a5.92,5.92,0,0,0-5.88-5.46h-9.26a7.88,7.88,0,0,0,.3-2.13,8.09,8.09,0,0,0-8.06-8.07H149.29a8.09,8.09,0,0,0-8.06,8.07,7.88,7.88,0,0,0,.3,2.13h-1.27a5.93,5.93,0,0,0-5.88,5.46h-1.85a7.66,7.66,0,1,0,0,15.32h60.05a7.66,7.66,0,0,0,0-15.32Z"/><path class="cls-9" d="M319.24,284.6a.41.41,0,0,1,.21.1"/><path class="cls-10" d="M234.41,321l0,.17a3.72,3.72,0,0,1,0,.44c0,.18,0,.39,0,.61a5.94,5.94,0,0,1-.09.69,6.56,6.56,0,0,1-.17.67c-.06.21-.16.4-.22.57a3.36,3.36,0,0,1-.2.39l-.1.15,0-.17a2.45,2.45,0,0,1,0-.44,4.36,4.36,0,0,1,0-.62,5.52,5.52,0,0,1,.09-.68,6.56,6.56,0,0,1,.17-.67c.06-.21.16-.41.22-.57s.16-.3.2-.4Z"/><path class="cls-4" d="M316,115.2v-1.84h-35.6V93.43h33.76V115.2H316v0h1.84V91.58a1.82,1.82,0,0,0-.54-1.3,1.85,1.85,0,0,0-1.3-.54H278.52a1.84,1.84,0,0,0-1.84,1.84V115.2a1.84,1.84,0,0,0,1.84,1.84H316a1.85,1.85,0,0,0,1.3-.54,1.82,1.82,0,0,0,.54-1.3Z"/><path class="cls-4" d="M277.38,93l18.72,14.92a1.86,1.86,0,0,0,2.3,0L317.12,93a1.82,1.82,0,0,0,.29-2.58,1.84,1.84,0,0,0-2.59-.3l-17.57,14-17.58-14A1.84,1.84,0,1,0,277.38,93Z"/><path class="cls-4" d="M477.47,241s-100.13,0-82,102.14C499.16,338.74,477.47,241,477.47,241Z"/><path class="cls-2" d="M470.6,299s-10.94,1.09-21.93,2.24c-5.49.57-11,1.16-15.16,1.64-2.08.24-3.82.45-5.06.61l-.38.06,25.38-31.62,23.84-2.62-.14-1.25-22.59,2.48L476,243.84l-1-.79L441.6,284.68l-3.67-33.45-1.25.14,3.8,34.71-21.89,27.28-9-32.37-1.19.33,9.21,33.22-14.53,18.09,1,.79L426.9,305l.69-.12c3.21-.49,14-1.65,24-2.69l13.32-1.36,4.24-.42,1.59-.16Z"/><path class="cls-4" d="M48.16,282.68s100.12,0,82,102.14C26.47,380.43,48.16,282.68,48.16,282.68Z"/><path class="cls-2" d="M55,340.7S66,341.79,77,342.94c5.5.57,11,1.16,15.16,1.64,2.08.24,3.83.45,5.07.62l.37.05L72.18,313.63,48.34,311l.14-1.25,22.59,2.48L49.64,285.53l1-.79L84,326.38l3.67-33.46,1.25.14-3.8,34.71L107,355.05l9-32.36,1.19.32L108,356.23l14.52,18.09-1,.79-22.79-28.4-.69-.12c-3.21-.49-14-1.65-24-2.68l-13.31-1.37-4.25-.42L54.91,342Z"/><path class="cls-4" d="M149.64,119a15,15,0,0,1-1.83-2.12,4,4,0,0,1-.41-.79,2.53,2.53,0,0,1-.09-.38,2,2,0,0,1,.19-.66,9.51,9.51,0,0,1,1.76-2.29,57.79,57.79,0,0,0,4.58-4.88,14.38,14.38,0,0,0,2-3.35,11,11,0,0,0,.82-4.19,2.15,2.15,0,0,0-.61-1.49,2.08,2.08,0,0,0-1.47-.61H132.09a2.11,2.11,0,0,0-1.48.61,2.2,2.2,0,0,0-.62,1.49,11.6,11.6,0,0,0,1.77,6,33.9,33.9,0,0,0,5.22,6,14.5,14.5,0,0,1,1.83,2.13,3.59,3.59,0,0,1,.42.78,1.62,1.62,0,0,1,.08.38,1.83,1.83,0,0,1-.18.66,9.8,9.8,0,0,1-1.77,2.29,58,58,0,0,0-4.58,4.88,14.57,14.57,0,0,0-1.95,3.36A10.86,10.86,0,0,0,130,131a2.16,2.16,0,0,0,.62,1.49,2.11,2.11,0,0,0,1.48.61h22.45a2.08,2.08,0,0,0,1.47-.61,2.11,2.11,0,0,0,.61-1.49,11.4,11.4,0,0,0-1.75-6A33.17,33.17,0,0,0,149.64,119ZM136.11,105.3a10.23,10.23,0,0,1-1.4-2.38c-.07-.17-.12-.34-.19-.51h17.59a8.68,8.68,0,0,1-.83,1.78,30.2,30.2,0,0,1-4.63,5.21,20.14,20.14,0,0,0-2.34,2.78,7.49,7.49,0,0,0-.85,1.67,2.54,2.54,0,0,0-.14.47,8.31,8.31,0,0,0-.4-1.06,12.83,12.83,0,0,0-2.53-3.41A59.77,59.77,0,0,1,136.11,105.3Zm-1.59,23.61a8,8,0,0,1,.83-1.76,29.78,29.78,0,0,1,4.61-5.22,18.37,18.37,0,0,0,2.36-2.78,7.94,7.94,0,0,0,.85-1.67,3.1,3.1,0,0,0,.15-.46,6.25,6.25,0,0,0,.38,1,13.13,13.13,0,0,0,2.54,3.42,55.79,55.79,0,0,1,4.27,4.53,10.34,10.34,0,0,1,1.41,2.38c.06.17.12.34.19.51Z"/><path class="cls-4" d="M270.56,56.52h-1.41V82.61L259.41,94.9H241.54v-37h29V56.52h0V55.11H240.12a1.42,1.42,0,0,0-1.41,1.41v39.8a1.43,1.43,0,0,0,1.41,1.41h20a1.41,1.41,0,0,0,1.11-.54L271.67,84a1.38,1.38,0,0,0,.31-.87V56.52a1.4,1.4,0,0,0-.42-1,1.41,1.41,0,0,0-1-.41Z"/><path class="cls-4" d="M260.09,96.32h1.42V84.51h6.13L259,95.44l1.1.88h0l1.11.87L271.67,84a1.41,1.41,0,0,0,.17-1.49,1.45,1.45,0,0,0-1.28-.8H260.09a1.42,1.42,0,0,0-1,.42,1.4,1.4,0,0,0-.42,1V96.32a1.41,1.41,0,0,0,2.52.87Z"/><polyline class="cls-4" points="245.69 65.04 265.33 65.04 265.33 62.22 245.69 62.22"/><polyline class="cls-4" points="245.69 70.43 265.33 70.43 265.33 67.6 245.69 67.6"/><polyline class="cls-4" points="245.69 75.81 261.25 75.81 261.25 72.99 245.69 72.99"/><path class="cls-1" d="M438.81,137l-1.09-.53A21.52,21.52,0,0,0,439,133.3l1.16.36A22.73,22.73,0,0,1,438.81,137Zm2-5.64-1.18-.27c.25-1.05.48-2.19.69-3.4l1.2.19C441.31,129.12,441.07,130.29,440.81,131.36Zm1.05-5.81-1.21-.16c.1-.72.18-1.44.25-2.16.05-.44.09-.87.13-1.31l1.21.11c0,.44-.08.88-.13,1.32C442,124.08,442,124.82,441.86,125.55Zm-.65-6c.09-1.19.16-2.36.22-3.49l1.21.07c-.06,1.13-.13,2.31-.22,3.51Zm.34-5.83.05-1c0-.83.08-1.65.08-2.48l1.22,0c0,.84,0,1.69-.08,2.53l-.06,1Zm.1-5.79c0-1.15-.12-2.32-.23-3.46l1.2-.11c.12,1.17.2,2.36.25,3.54ZM298.4,89.79l-1.15-.38c.38-1.09.74-2.2,1.09-3.32l1.17.34C299.15,87.57,298.79,88.69,298.4,89.79Zm142.73,12.43c-.17-1.15-.38-2.3-.62-3.42l1.19-.24c.25,1.16.46,2.33.63,3.5ZM384.84,95.7l-.54-.07.17-1.15a9.91,9.91,0,0,0,3.4-.08l.27,1.14A11,11,0,0,1,384.84,95.7Zm-3-.7a14.65,14.65,0,0,1-1.84-.8,11.7,11.7,0,0,1-1.53-.92l.72-.94a11.73,11.73,0,0,0,1.38.83,13.65,13.65,0,0,0,1.68.74Zm8.73-.29-.56-1a9.64,9.64,0,0,0,2.71-2l.89.8A10.9,10.9,0,0,1,390.56,94.71ZM300.19,84.19,299,83.85c.34-1.11.68-2.24,1-3.36l1.16.35C300.87,82,300.53,83.08,300.19,84.19Zm76.38,7.41a11.58,11.58,0,0,1-2-3.16L375.7,88a10.28,10.28,0,0,0,1.79,2.84ZM440,96.54c-.3-1.13-.64-2.25-1-3.34l1.15-.36c.39,1.12.73,2.27,1,3.42Zm-44.82-6-1-.62a12.29,12.29,0,0,0,1.38-3.06l1.17.34A13.83,13.83,0,0,1,395.14,90.54ZM373.83,86.1a16.19,16.19,0,0,1-.37-3.61h1.21a15.74,15.74,0,0,0,.35,3.36ZM302,78.63l-1.15-.38c.43-1.22.84-2.3,1.27-3.32l1.13.45C302.79,76.37,302.38,77.44,302,78.63ZM438.14,91c-.43-1.08-.9-2.16-1.4-3.2l1.1-.49c.51,1.07,1,2.17,1.44,3.28Zm-41-6.2-1.21-.15,0-.27a14.07,14.07,0,0,0,0-2.25c0-.29,0-.58-.07-.86l1.21-.1c0,.3,0,.59.07.9a15.3,15.3,0,0,1-.05,2.44Zm-93-11.55-1.1-.51c.41-.84.85-1.66,1.3-2.42l.43-.71,1,.6-.42.69C305,71.66,304.56,72.45,304.16,73.27Zm70.66,7-1.21-.14a23.4,23.4,0,0,1,.72-3.52l1.17.31A21.41,21.41,0,0,0,374.82,80.23Zm60.85,5.51c-.56-1-1.16-2-1.79-3l1-.61c.65,1,1.26,2,1.84,3.09ZM395.61,79a21.75,21.75,0,0,0-.95-3.29l1.15-.39a22.93,22.93,0,0,1,1,3.47ZM307.13,68.31l-1-.67a36,36,0,0,1,2.24-2.82l.93.76C308.54,66.45,307.8,67.37,307.13,68.31ZM432.56,80.78c-.68-1-1.4-1.9-2.15-2.8l.94-.72c.77.92,1.52,1.88,2.21,2.86Zm-56.33-6.07-1.14-.42A26.23,26.23,0,0,1,376.62,71l1.07.57A24.59,24.59,0,0,0,376.23,74.71Zm17.52-1.08a23.76,23.76,0,0,0-1.76-3l1-.65a26.22,26.22,0,0,1,1.85,3.13Zm35.1,2.58c-.79-.86-1.63-1.71-2.5-2.52l.85-.83c.88.82,1.74,1.69,2.56,2.58Zm-118-12.32-.87-.82c.85-.84,1.76-1.66,2.7-2.42l.78.9A34,34,0,0,0,310.9,63.89Zm68,5.77-1-.67a17.88,17.88,0,0,1,2.41-2.77l.84.85A16.07,16.07,0,0,0,378.92,69.66Zm11.66-.86a31.87,31.87,0,0,0-2.41-2.56l.84-.83a31.11,31.11,0,0,1,2.51,2.66Zm34,3.32c-.9-.76-1.84-1.5-2.8-2.2l.73-.93c1,.72,2,1.47,2.87,2.25Zm-109.21-12-.73-.94c1-.69,2-1.36,3.07-2l.63,1C317.33,58.8,316.33,59.45,315.38,60.12ZM383,65.61l-.73-.93a21.46,21.46,0,0,1,2.28-1.45c-.31-.22-.63-.45-1-.67l.7-1c1,.7,2,1.44,2.93,2.19l-.78.88-.84-.66A20.76,20.76,0,0,0,383,65.61Zm36.87,3c-.44-.3-.9-.58-1.36-.87s-1.11-.67-1.69-1l.6-1q.9.5,1.74,1c.47.29.94.58,1.4.89Zm-99.4-11.49-.58-1c1.07-.54,2.19-1.06,3.33-1.53l.48,1.08C322.55,56.05,321.46,56.55,320.43,57.07Zm67.68,5.82-.45-1.09a24.45,24.45,0,0,1,3.57-1l.27,1.14A23.24,23.24,0,0,0,388.11,62.89Zm26.55,2.72c-1.07-.52-2.17-1-3.28-1.44l.45-1.08c1.14.44,2.27.94,3.38,1.47Zm-33.11-4.34c-1-.6-2.05-1.18-3.13-1.74l.57-1c1.11.57,2.18,1.17,3.2,1.78Zm27.58,2.09c-1.15-.37-2.31-.7-3.45-1l.28-1.13c1.18.28,2.37.62,3.56,1Zm-83.25-8.62-.42-1.09c1.13-.4,2.31-.77,3.5-1.1l.34,1.13C328.14,54,327,54.35,325.88,54.74Zm68,6.8-.16-1.16a30.1,30.1,0,0,1,3.71-.2v1.17A29.65,29.65,0,0,0,393.84,61.54Zm9.5.36c-1.2-.21-2.39-.37-3.56-.46l.09-1.16c1.21.09,2.44.25,3.68.46Zm-27.07-3.42c-1.06-.49-2.18-1-3.31-1.42l.45-1.08c1.16.46,2.29.94,3.38,1.44ZM331.62,53.1,331.33,52c1.18-.27,2.39-.5,3.61-.69l.21,1.15C334,52.61,332.77,52.84,331.62,53.1Zm39.09,3.11c-1.11-.4-2.27-.78-3.43-1.14l.36-1.11c1.18.36,2.36.75,3.48,1.15Zm-33.18-4.12-.16-1.16c1.2-.15,2.43-.26,3.66-.33l.09,1.16C339.91,51.84,338.71,52,337.53,52.09ZM365,54.4c-1.18-.33-2.35-.62-3.5-.89l.27-1.14c1.17.27,2.36.57,3.56.9Zm-21.44-2.74,0-1.17c1.21,0,2.45,0,3.68,0l0,1.17C345.93,51.63,344.71,51.63,343.52,51.66ZM359.1,53c-1.17-.23-2.37-.44-3.57-.61l.18-1.16c1.22.18,2.43.39,3.62.62Zm-9.56-1.24.07-1.16c1,.06,2,.14,2.95.24l.71.07-.13,1.17-.7-.08C351.48,51.91,350.51,51.83,349.54,51.77Z"/><path class="cls-1" d="M74.2,148.3l-.92-.53.55-.93.91.53Zm-2.78-1.63c-.92-.55-1.85-1.12-2.78-1.71l.59-.91c.91.59,1.83,1.15,2.74,1.69Zm-4.59-2.91c-1-.65-1.83-1.28-2.65-1.92l.66-.85c.81.62,1.66,1.24,2.6,1.88Zm-4.35-3.3c-.87-.74-1.67-1.5-2.4-2.25l.78-.75c.7.73,1.48,1.46,2.32,2.18Zm-3.87-3.88a24.79,24.79,0,0,1-1.93-2.69l.91-.57a24,24,0,0,0,1.85,2.57Zm-3-4.64c-.26-.55-.5-1.12-.71-1.68l-.17-.49c-.11-.31-.21-.61-.3-.92l1-.32c.09.29.19.59.29.89l.17.47a16.78,16.78,0,0,0,.67,1.59Zm-.71-5.45-1,.24a25.27,25.27,0,0,1-.56-3.26l1.07-.11A25.66,25.66,0,0,0,54.9,126.49Zm-.66-5.23H53.16a21.25,21.25,0,0,1,.21-3.31l1.07.15A19.25,19.25,0,0,0,54.24,121.26Zm.61-5.21-1.05-.27a19.08,19.08,0,0,1,1.11-3.13l1,.44A18.23,18.23,0,0,0,54.85,116.05Zm2-4.81-.93-.56a20.89,20.89,0,0,1,1.94-2.7l.82.7A19.61,19.61,0,0,0,56.87,111.24Zm3.28-4.09-.75-.78a25.1,25.1,0,0,1,2.53-2.12l.64.87A24.27,24.27,0,0,0,60.15,107.15ZM84.86,98l-.36-1a16.63,16.63,0,0,0,2.84-1.32l.55.93A17.74,17.74,0,0,1,84.86,98Zm-2.1.66c-.93.25-1.94.48-3.19.73l-.21-1.06c1.22-.24,2.21-.47,3.12-.72Zm-5.32,1.14-.5.09c-.89.16-1.78.32-2.68.5l-.21-1.06c.9-.18,1.8-.34,2.69-.5l.5-.1ZM89.72,95.3l-.7-.83a11.26,11.26,0,0,0,2-2.3l.89.61A12.23,12.23,0,0,1,89.72,95.3Zm-25.39,8.64-.57-.92c.38-.23.78-.46,1.18-.68a17.78,17.78,0,0,1,1.75-.86l.43,1a18.27,18.27,0,0,0-1.66.81Zm7.84-3.09c-1.14.27-2.15.55-3.07.86l-.35-1c1-.32,2-.61,3.17-.89Zm20.89-10-1-.44a16.7,16.7,0,0,0,1-3l1,.25A18.3,18.3,0,0,1,93.06,90.81Zm1.46-5.34-1.07-.13c.13-1.07.2-2.16.25-3.19l1.08,0C94.73,83.25,94.66,84.37,94.52,85.47Zm46.83-18.23L140,65.63l-.72-.84.81-.71.73.85,1.39,1.6ZM94.88,80,93.8,80c.06-1,.13-2.13.3-3.28l1.07.16C95,78,94.93,79.1,94.88,80ZM137.8,63.19A27.51,27.51,0,0,0,135.53,61l.71-.81a27.9,27.9,0,0,1,2.36,2.31ZM95.6,74.83l-1-.3.15-.49a14.9,14.9,0,0,1,1.16-2.6l.94.52a13.15,13.15,0,0,0-1.07,2.42C95.69,74.53,95.65,74.68,95.6,74.83Zm38.28-15.15a13,13,0,0,0-2.76-1.43l.38-1a13.9,13.9,0,0,1,3,1.55ZM98,70.21l-.87-.64a22.44,22.44,0,0,1,2.16-2.52l.77.76A20.39,20.39,0,0,0,98,70.21ZM129.13,57.7a21.09,21.09,0,0,0-3.13-.38l0-1.08a21.76,21.76,0,0,1,3.29.4Zm-27.57,8.67-.71-.82c.81-.69,1.69-1.37,2.61-2l.62.88Q102.73,65.36,101.56,66.37Zm22.32-9.05a27.29,27.29,0,0,0-3.16.32l-.16-1.07a31.41,31.41,0,0,1,3.28-.33Zm-18,5.93-.56-.92c.93-.57,1.9-1.11,2.87-1.6l.48,1C107.7,62.17,106.76,62.7,105.85,63.25ZM118.64,58c-1,.22-2,.5-3.09.83l-.32-1c1.07-.34,2.14-.62,3.17-.86Zm-8.07,2.74-.44-1c1-.45,2-.87,3-1.24l.38,1C112.56,59.92,111.56,60.33,110.57,60.78Z"/><path class="cls-1" d="M213.28,132.63l0-1.08a31.14,31.14,0,0,0,3.18-.24l.13,1.08C215.47,132.52,214.36,132.6,213.28,132.63Zm-2.2,0a28.86,28.86,0,0,1-3.28-.36l.18-1.06a29.18,29.18,0,0,0,3.15.34Zm7.65-.56-.2-1.06c1-.2,2.08-.45,3.09-.75l.31,1A31.1,31.1,0,0,1,218.73,132Zm5.28-1.47-.38-1a29.6,29.6,0,0,0,2.92-1.28l.49,1A31.83,31.83,0,0,1,224,130.57Zm5-2.4-.57-.91a15.51,15.51,0,0,0,2.46-1.92l.75.77A15.75,15.75,0,0,1,229,128.17Zm4.12-3.75-.87-.64c.23-.31.45-.64.66-1-.38-.09-.76-.19-1.12-.31l.32-1q.66.21,1.35.36c.12-.24.24-.49.35-.75l1,.44-.24.5.61.07-.1,1.07c-.34,0-.69-.07-1-.13A15.13,15.13,0,0,1,233.08,124.42Zm4.21-1.26-.11-1.07c.24,0,.47-.06.69-.11a9.64,9.64,0,0,0,2.24-.71l.46,1a10.85,10.85,0,0,1-2.49.8C237.83,123.09,237.56,123.13,237.29,123.16Zm-7.62-1.49a10.82,10.82,0,0,1-2.81-1.9l.74-.78a10.07,10.07,0,0,0,2.54,1.71ZM242.5,121l-.7-.82a7.61,7.61,0,0,0,1.82-2.38l1,.47A8.39,8.39,0,0,1,242.5,121Zm-7-1.59-1.05-.28a14,14,0,0,0,.45-3.08l1.08,0A16.29,16.29,0,0,1,235.53,119.42Zm-10.1-1.48a5.68,5.68,0,0,1-.67-2.25c0-.15,0-.29,0-.44a6.61,6.61,0,0,1,0-.76l1.07.13a4.44,4.44,0,0,0,0,.63c0,.12,0,.24,0,.35a4.67,4.67,0,0,0,.55,1.83Zm19.95-1.77-1-.29a17.11,17.11,0,0,0,.52-3.09l1.08.09A18.43,18.43,0,0,1,245.38,116.17ZM234.85,114a7.21,7.21,0,0,0-.87-2.85l.92-.56a8.13,8.13,0,0,1,1,3.29Zm-8.43-1.26-1-.46a7.79,7.79,0,0,1,2.09-2.75l.69.84A6.81,6.81,0,0,0,226.42,112.72Zm19.63-2-1.08,0c0-.35,0-.7,0-1,0-.73,0-1.45,0-2.17l1.08,0c0,.73,0,1.46,0,2.2C246.06,110,246.06,110.33,246.05,110.69Zm-13.42-.85a3.59,3.59,0,0,0-2.72-.38l-.28-1a4.69,4.69,0,0,1,3.53.49Zm12.27-4.55c0-.43,0-.85,0-1.26,0-.71,0-1.39.06-2l1.08.08c-.05.61-.06,1.27-.06,2,0,.4,0,.82,0,1.24Z"/><path class="cls-1" d="M187.77,128.13l-1.08-.07c0-.23,0-.46,0-.68a10.22,10.22,0,0,0-.28-2.37l1-.25a11.29,11.29,0,0,1,.31,2.62C187.79,127.63,187.79,127.88,187.77,128.13Zm-2-5.09a16.94,16.94,0,0,0-1.49-2.75l.9-.6a18.07,18.07,0,0,1,1.59,2.94ZM183,118.6a27.07,27.07,0,0,0-2.15-2.33l.75-.78a27.89,27.89,0,0,1,2.24,2.43Zm-3.73-3.75c-.79-.67-1.64-1.33-2.53-2l.63-.88c.91.65,1.78,1.32,2.59,2ZM175,111.7c-.9-.56-1.83-1.1-2.77-1.61l.51-1c1,.51,1.92,1.07,2.84,1.65Zm-4.68-2.56c-1-.46-2-.88-2.94-1.24l.37-1c1,.37,2,.8,3,1.27Zm-5-1.93a26.94,26.94,0,0,0-3.09-.74l.19-1.07a29.22,29.22,0,0,1,3.21.78Zm-5.17-1a14.29,14.29,0,0,0-1.46,0l0-1.08a13.76,13.76,0,0,1,1.57,0Z"/><path class="cls-1" d="M238.81,198.29H238l0-1.08c1.05,0,2.13,0,3.21-.05l0,1.08C240.45,198.28,239.63,198.29,238.81,198.29Zm-3-.07c-1.1-.06-2.19-.14-3.26-.26l.12-1.07c1,.11,2.12.2,3.2.25Zm7.63-.11-.09-1.08c1.08-.09,2.16-.21,3.19-.37l.16,1.07C245.66,197.89,244.57,198,243.46,198.11Zm-13.05-.42-.63-.1.17-1.07.62.1Zm18.46-.33-.21-1.06c1.07-.21,2.12-.45,3.11-.73l.3,1C251.05,196.89,250,197.15,248.87,197.36Zm5.29-1.41-.36-1a30.26,30.26,0,0,0,2.95-1.2l.46,1A32.34,32.34,0,0,1,254.16,196Zm5-2.27-.54-.93a23.9,23.9,0,0,0,2.61-1.78l.67.84A22.74,22.74,0,0,1,259.16,193.68Zm4.4-3.34-.77-.77a16.83,16.83,0,0,0,2-2.41l.89.61A17.75,17.75,0,0,1,263.56,190.34Zm3.26-4.48-1-.49a16.89,16.89,0,0,0,1.15-2.92l1,.3A18.23,18.23,0,0,1,266.82,185.86Z"/><rect class="cls-4" x="306.88" y="383.58" width="17.73" height="2.96"/><path class="cls-4" d="M337.91,377.67a4.07,4.07,0,0,0-.5,0,5.89,5.89,0,0,1,0,8.81,4.07,4.07,0,0,0,.5,0,4.44,4.44,0,1,0,0-8.87Z"/><path class="cls-4" d="M337.91,382.1a4.44,4.44,0,1,1-4.43-4.43A4.43,4.43,0,0,1,337.91,382.1Z"/><rect class="cls-4" x="300.97" y="367.33" width="47.29" height="5.91"/><path class="cls-4" d="M345.3,391v-1H303.92a2,2,0,0,1-2-2V364.37a2,2,0,0,1,2-2H345.3a2,2,0,0,1,2,2V388a2,2,0,0,1-2,2v2a4,4,0,0,0,3.95-3.95V364.37a4,4,0,0,0-3.95-3.95H303.92a4,4,0,0,0-3.95,3.95V388a4,4,0,0,0,3.95,3.95H345.3Z"/><path class="cls-4" d="M187.9,390.59h11.39a1.84,1.84,0,0,0,1.84-1.84v-21a1.86,1.86,0,0,0-.58-1.35L184,350.94a1.84,1.84,0,0,0-2.51,0L165,366.39a1.83,1.83,0,0,0-.59,1.35v21a1.84,1.84,0,0,0,1.84,1.84h11.4a1.85,1.85,0,0,0,0-3.69h-9.55V368.54l14.7-13.74,14.7,13.74V386.9H187.9a1.85,1.85,0,0,0,0,3.69Z"/><path class="cls-4" d="M179.44,388.75V376.06h6.62v12.69a1.84,1.84,0,1,0,3.68,0V374.22a1.84,1.84,0,0,0-1.84-1.84H177.6a1.89,1.89,0,0,0-1.31.54,1.86,1.86,0,0,0-.53,1.3v14.53a1.84,1.84,0,1,0,3.68,0Z"/><path class="cls-1" d="M230.07,413.16c-.55,0-1.1,0-1.64,0l0-1.08q1.6.06,3.21,0l0,1.08C231.16,413.15,230.61,413.16,230.07,413.16Zm-3.82-.15c-1.1-.09-2.19-.21-3.26-.37l.16-1.07c1,.16,2.11.28,3.18.36Zm7.63,0-.08-1.08c1.06-.08,2.13-.21,3.18-.37l.16,1.07C236.07,412.79,235,412.92,233.88,413Zm-13-.73c-1.07-.2-2.15-.44-3.2-.71l.27-1c1,.26,2.08.49,3.13.69Zm18.45,0-.21-1.06c1-.21,2.07-.46,3.12-.74l.28,1C241.41,411.78,240.34,412,239.29,412.25Zm36.2-.51c-.93,0-1.87,0-2.8-.07l.05-1.08c.92.05,1.83.07,2.75.07H276v1.08Zm2.65-.06-.05-1.08c1.06-.06,2.14-.14,3.19-.26l.12,1.07C280.32,411.53,279.23,411.62,278.14,411.68Zm-7.62-.16c-1.07-.1-2.17-.22-3.25-.38l.15-1.07c1.07.16,2.14.28,3.19.37Zm13.05-.4-.17-1.07c1.06-.16,2.12-.37,3.15-.6l.23,1.06C285.73,410.74,284.65,411,283.57,411.12Zm-68-.12c-1-.32-2.09-.66-3.1-1l.37-1c1,.37,2,.7,3,1Zm29-.13-.33-1c1-.32,2-.68,3-1.06l.39,1C246.66,410.17,245.62,410.54,244.58,410.87Zm20.54-.08-1.47-.28-1.73-.37.24-1.05,1.71.36,1.44.28ZM288.9,410l-.28-1c1-.28,2.06-.59,3.07-.94l.34,1C291,409.38,290,409.7,288.9,410Zm-29.1-.35c-1.08-.27-2.14-.57-3.15-.87l.32-1c1,.31,2,.6,3.1.87Zm-49.4-.45c-1-.41-2-.86-3-1.33l.47-1c1,.46,1.94.89,2.93,1.3Zm39.29-.23-.44-1c.78-.34,1.54-.7,2.28-1.07h0l.44-1c.92.41,1.92.8,3,1.17l-.36,1c-.71-.25-1.4-.51-2.06-.78l.12.23C251.7,408,250.7,408.5,249.69,409Zm44.4-.68-.4-1c1-.39,2-.83,2.9-1.31l.49,1C296.12,407.4,295.11,407.86,294.09,408.27Zm-88.63-1.39c-1-.51-1.92-1.05-2.85-1.6l.56-.93c.91.54,1.85,1.07,2.8,1.57Zm49.09-.42-.55-.93c.94-.56,1.84-1.15,2.67-1.75l.63.88C256.44,405.27,255.52,405.88,254.55,406.46Zm-5-.52a25.08,25.08,0,0,1-2.84-1.7l.62-.89A22.22,22.22,0,0,0,250,405Zm49.46-.08-.55-.93c.9-.53,1.8-1.12,2.68-1.75l.62.88C300.86,404.71,299.93,405.31,299,405.86Zm-98.24-1.73c-.91-.6-1.82-1.22-2.69-1.86l.64-.87c.86.63,1.75,1.24,2.64,1.82Zm58.28-.82-.7-.83a27,27,0,0,0,2.32-2.17l.78.74A27.47,27.47,0,0,1,259,403.31ZM245,402.84a11.39,11.39,0,0,1-2.16-2.6l.93-.55a10.5,10.5,0,0,0,2,2.36Zm58.54-.11-.68-.84c.8-.64,1.59-1.33,2.42-2.09l.73.79C305.13,401.37,304.32,402.07,303.5,402.73ZM196.33,401c-.85-.68-1.7-1.38-2.51-2.09l.71-.82c.8.71,1.63,1.4,2.47,2.06Zm66.55-1.6-.86-.65a19.73,19.73,0,0,0,1.71-2.64l.95.5A19.71,19.71,0,0,1,262.88,399.36Zm44.66-.28-.76-.77c.75-.74,1.48-1.52,2.23-2.32l.79.73C309.05,397.54,308.3,398.32,307.54,399.08Zm-65.67-.92a11.46,11.46,0,0,1-.52-3.35h1.08a10.28,10.28,0,0,0,.47,3Zm-49.66-.76c-.5-.47-1-.94-1.46-1.43l.77-.75c.47.47.94.93,1.43,1.39Zm73.39-2.86-1-.38a15.89,15.89,0,0,0,.79-3l1.07.16A16.53,16.53,0,0,1,265.6,394.54Zm-23-1.8-1.07-.17a17.45,17.45,0,0,1,.83-3.23l1,.36A16.19,16.19,0,0,0,242.58,392.74Zm24-3.65-1.08,0v-.26a17.46,17.46,0,0,0-.25-2.86l1.06-.18a17.52,17.52,0,0,1,.27,3Zm-22.46-1.32-1-.48a24.38,24.38,0,0,1,1.65-2.87l.9.6A21.66,21.66,0,0,0,244.17,387.77Zm20.66-3.86-.1-.33a15.53,15.53,0,0,0-1-2.59l.95-.5a16,16,0,0,1,1.12,2.77l.1.34ZM247,383.33l-.84-.68a23.71,23.71,0,0,1,2.25-2.43l.74.79A22.62,22.62,0,0,0,247,383.33Zm3.76-3.68-.65-.86A17.38,17.38,0,0,1,253,377l.48,1A17.1,17.1,0,0,0,250.77,379.65Zm11.81-.37a6.65,6.65,0,0,0-2.33-1.84l.45-1a7.63,7.63,0,0,1,2.71,2.13Zm-7.23-2-.3-1a8.79,8.79,0,0,1,3.4-.36l-.1,1.08A7.89,7.89,0,0,0,255.35,377.24Z"/><path class="cls-1" d="M392.89,375.73h-2v-1.08h3.23v1.08Zm3.37,0v-1.08l3.23-.05,0,1.08Zm-7.57,0-3.24,0v-1.08l3.24,0Zm-5.41-.07-3.24-.07,0-1.08,3.23.07Zm18.39,0,0-1.08.54,0,0,1.08Zm-23.79-.09-3.24-.08,0-1.08,3.24.08Zm-5.39-.12-3.24-.07,0-1.08,3.24.07Zm-5.4-.11-3.24-.05v-1.08l3.25.05Zm-5.4-.07h-3.23v-1.08h3.24Z"/><path class="cls-1" d="M401.23,394.72a23.35,23.35,0,0,0-2.91-1.24l.36-1a25.49,25.49,0,0,1,3,1.3Zm-4.93-1.88c-1-.27-2-.51-3.11-.73l.2-1.06c1.15.23,2.19.47,3.2.75Zm-5.22-1.09c-1.05-.16-2.12-.3-3.19-.42l.12-1.07c1.09.12,2.17.26,3.23.42Zm-5.34-.64-2.61-.25-.61-.05.1-1.08.61.06,2.62.24Zm-5.38-.5c-1.08-.1-2.16-.22-3.23-.35l.13-1.07c1.06.13,2.13.24,3.21.34ZM375,390c-1.15-.17-2.21-.36-3.22-.57l.22-1c1,.2,2,.39,3.16.56Zm-5.35-1.07c-1.1-.3-2.16-.64-3.14-1l.39-1a29.13,29.13,0,0,0,3,1ZM364.46,387a24.19,24.19,0,0,1-2.88-1.63l.6-.9a22.82,22.82,0,0,0,2.75,1.56Z"/><path class="cls-1" d="M380.09,408.85c-.21-.27-.44-.54-.7-.82l.79-.73c.28.3.54.6.77.9Zm-2.23-2.25c-.74-.63-1.59-1.27-2.54-1.93l.61-.89c1,.68,1.86,1.35,2.63,2Zm-4.33-3.1c-.87-.55-1.8-1.1-2.77-1.63l.52-.95c1,.55,1.93,1.1,2.83,1.66Zm-4.66-2.64c-1-.5-2-1-2.9-1.38l.44-1c1,.43,1.95.9,2.95,1.41ZM364,398.65a28.08,28.08,0,0,0-3-1l.28-1.05a28.28,28.28,0,0,1,3.13,1.06Z"/><path class="cls-1" d="M118.74,411.29l-.47-1c.21-.1.41-.21.61-.33l.55.93C119.2,411.05,119,411.18,118.74,411.29Zm2.52-1.66-.68-.83c.76-.63,1.5-1.34,2.21-2l.15-.14.74.78-.14.14C122.81,408.26,122.06,409,121.26,409.63Zm4-3.66-.71-.81q1.21-1.08,2.46-2.13l.69.83C126.87,404.55,126.06,405.25,125.25,406Zm4.1-3.49-.69-.83,2.53-2,.67.85C131,401.12,130.18,401.79,129.35,402.48Zm4.21-3.36-.67-.85c.86-.67,1.71-1.33,2.58-2l.65.86C135.26,397.8,134.41,398.46,133.56,399.12Zm4.28-3.28-.65-.86,2.59-1.94.65.86Zm4.32-3.23-.65-.87,2.6-1.94.64.87Zm4.33-3.22-.64-.87,2.62-1.91.64.87Zm4.36-3.19-.65-.87q1.31-1,2.58-1.95l.66.85C152.59,384.9,151.72,385.55,150.85,386.2Z"/><path class="cls-1" d="M142.2,416.33l-1-.4.05-.14,1.11-2.8,1,.41c-.4,1-.77,1.94-1.1,2.79Zm2-4.93-1-.41c.41-1,.84-2,1.3-3l1,.45C145,409.45,144.59,410.44,144.18,411.4Zm2.2-4.9-1-.47c.5-1,1-2,1.49-2.91l.95.52C147.37,404.52,146.87,405.49,146.38,406.5Zm2.53-4.72-.93-.56c.6-1,1.21-1.93,1.8-2.75l.87.63C150.08,399.9,149.49,400.8,148.91,401.78Zm3.05-4.34-.82-.7a16.25,16.25,0,0,1,2.4-2.33l.66.85A15.13,15.13,0,0,0,152,397.44Z"/><polygon class="cls-11" points="386.18 314.38 386.18 319.69 364.03 331.99 364.03 326.68 386.18 314.38"/><polygon class="cls-11" points="364.03 326.68 364.03 331.99 335.12 322.35 335.12 317.04 364.03 326.68"/><polygon class="cls-12" points="386.18 314.38 364.03 326.68 335.12 317.04 351.11 308.4 351.11 311.06 368.46 316.15 374.55 313.49 374.55 310.5 386.18 314.38"/><polygon class="cls-7" points="374.55 310.5 374.55 313.49 368.46 316.15 368.46 297.63 374.55 297.96 374.55 310.5"/><polygon class="cls-11" points="368.46 297.63 368.46 316.15 351.11 311.06 351.11 308.4 351.11 296.66 368.46 297.63"/><polygon class="cls-7" points="408.1 299.1 398.65 302.86 398.65 145.85 408.1 147.69 408.1 299.1"/><polygon class="cls-11" points="303.58 294.01 303.58 182.23 398.65 145.86 398.65 302.86 303.58 294.01"/><polygon class="cls-4" points="394.82 152.05 394.82 293.12 307.42 288.25 307.42 185.49 350.1 169.16 394.82 152.05"/><polygon class="cls-13" points="182.29 319.14 182.29 323.81 167.62 334.88 167.62 330.54 182.29 319.14"/><path class="cls-5" d="M167.62,330.54v4.34s-14.37-1.22-18.15-4.07c-3.1-2.35-3.42-8.54-3.45-9.71l4.26-2.37s-1.43,6.67,1.59,8.94C155.16,330.16,167.62,330.54,167.62,330.54Z"/><path class="cls-13" d="M146,321.1l-15.8,8.78a5.22,5.22,0,0,1-1.63.58V316.6L194,281h2.53V293l-26,14.47-20.2,11.23Z"/><path class="cls-13" d="M196.52,177.53V281H194V179l-65.4-15.38v-4.48l65.8,15.79A2.72,2.72,0,0,1,196.52,177.53Z"/><polygon class="cls-4" points="193.99 179 193.99 280.94 128.59 316.59 128.59 163.61 193.99 179"/><path class="cls-14" d="M182.29,319.14l-14.67,11.4s-12.46-.38-15.75-2.87c-3-2.27-1.59-8.94-1.59-8.94l20.2-11.23-.19,3.52c.25,3.68,2.23,4.15,4.72,5.24Z"/><path class="cls-13" d="M128.59,316.6v13.86a5.62,5.62,0,0,1-.92.08,5,5,0,0,1-5.12-4.93V162.9a4.17,4.17,0,0,1,4.23-4.08,4.66,4.66,0,0,1,1,.12l.78.19V316.6Z"/><path class="cls-5" d="M127.67,330.54h-2.61a13.63,13.63,0,0,1-13.89-13.36V169.45a10.84,10.84,0,0,1,11-10.63h4.57a4.17,4.17,0,0,0-4.23,4.08V325.61A5,5,0,0,0,127.67,330.54Z"/><path class="cls-15" d="M269.65,232.69c10.62,1.49,13,.16,16.83-3.38,0,0,12.18-4.37,22.81,21.77,5.63,13.82,7.09,22.23,7.23,27.08l-4,3.26L300,291.61a23.18,23.18,0,0,0-3.14-6.84c-2.82-4.63-8.86-15.31-27.17-26.24s-16.09-.87-28.35,2.51-16.39-5.16-15.35-7.82c.84-2.17,15.08-12,22.12-16.69,1.57-1.05,2.8-1.83,3.41-2.21C254.88,232.25,259,231.22,269.65,232.69Z"/><path class="cls-7" d="M394.82,152.05v75.73c-28.55,24.95-68.35,55.31-68.45,56.19.35-3,.55-5.84.62-8.58.58-25.37-10.66-40.24-19.58-48a48.64,48.64,0,0,0-9-6.31s-1.82,1-4.15,2.54a3.41,3.41,0,0,1-.11-2.81c.47-.91,5.63-5.85,13.29-12.91,11.16-10.31,27.65-25.16,42.69-38.74Z"/><path class="cls-16" d="M298.38,221.08c6.32,3.35,29.43,18.18,28.61,54.31l-7.71,5.86L315.71,284s.93-1.5.81-5.81c-.14-4.85-1.6-13.26-7.23-27.08-10.63-26.14-22.81-21.77-22.81-21.77a63.09,63.09,0,0,1,7.75-5.69C296.56,222.13,298.38,221.08,298.38,221.08Z"/><path class="cls-17" d="M298.38,297a4.78,4.78,0,0,1-4.48,1.15,7.25,7.25,0,0,1-1.13-.34,9.69,9.69,0,0,1,.61,1.81h0c.47,1.91.7,5-1.59,7.26s-4.25,3.15-7.5,1.91c-.24-.09-.48-.2-.74-.31a7,7,0,0,1,1.2,3,5.83,5.83,0,0,1-1.67,5c-2.23,2.39-4.48,2.49-6.15,2a7.28,7.28,0,0,1-1.09-.42,5.59,5.59,0,0,1,.44,1.12,4.61,4.61,0,0,1-.82,4.31c-2.06,2.51-5.89,1.76-9.81,0-1.36-.63-3.83-1.69-6.48-2.82-5-2.1-10.5-4.42-10.5-4.42s1.48-2.73-2.4-7.71c-2.2-2.83-4.64-3.13-6.64-2,0-.16,1.6-8.26-3.43-11.54-3-1.93-5.31-.48-7.15,2.13,0,0-.38-6.36-4.7-7.45-3.19-.82-5,1.06-7,4.43,0,0-1.53-7.53-5.63-7.42-3,.07-5.67,2.79-7.22,6.33l-14.88-10.22-2.52-1.73H187c.49-9.19,4.36-28.76,25.69-51.79,5.21,2.85,9.74,5,11.71,5.58,4.44,1.23,5.68.16,12.77-.39a32,32,0,0,1,12.12,1.23c-7,4.65-22.46,15.3-23.3,17.47-1,2.66,3.1,11.21,15.35,7.82s10-13.43,28.35-2.51,24.35,21.61,27.17,26.24a23.18,23.18,0,0,1,3.14,6.84A5.27,5.27,0,0,1,298.38,297Z"/><path class="cls-15" d="M259.18,320.68s-9.12,5.58-16.1,2.82a16.84,16.84,0,0,1-2.25-1.06.37.37,0,0,1-.12-.07l-.85-.5c-4.19-2.76-4.93-6.55-3.65-10.56a8.42,8.42,0,0,1,3.41-4.71h0a3.24,3.24,0,0,1,.53-.26c1.89-.84,4.1-.37,6.11,2.22,3.88,5,2.4,7.71,2.4,7.71S254.22,318.58,259.18,320.68Z"/><path class="cls-15" d="M239.86,321.87l-.36.05-5.82.7a6.59,6.59,0,0,1-4.15-.86,7.85,7.85,0,0,1-.84-.58c-1.8-1.48-4.08-3.55-4.67-5.1-1-2.67-.22-6.75,1.77-12.18a29.91,29.91,0,0,1,3.27-6.72,10.62,10.62,0,0,1,.8-1c1.71-1.93,3.81-2.77,6.35-1.11,4.48,2.92,3.69,9.68,3.48,11.21,0,.19-.05.31-.05.33h0a8.42,8.42,0,0,0-3.41,4.71C234.93,315.32,235.67,319.11,239.86,321.87Z"/><path class="cls-15" d="M228.69,321.18l-.33,0a73.23,73.23,0,0,1-8.17.35c-3.93-.1-6.57-2.13-8.9-6a7.2,7.2,0,0,1-.73-1.69,7.74,7.74,0,0,1-.26-1.2c-.59-4.37,2.14-9.63,4.76-14.35.85-1.54,1.59-2.93,2.3-4.14.24-.4.48-.78.71-1.14,1.75-2.65,3.48-4,6.29-3.29,3.69.93,4.5,5.71,4.66,7.08,0,.23,0,.37,0,.37a29.91,29.91,0,0,0-3.27,6.72c-2,5.43-2.76,9.51-1.77,12.18C224.61,317.63,226.89,319.7,228.69,321.18Z"/><path class="cls-15" d="M215.06,298.3c-2.62,4.72-5.35,10-4.76,14.35l-.25,0h0a21.57,21.57,0,0,1-3.84-1.39,6.27,6.27,0,0,1-3.6-5.76,50.57,50.57,0,0,1,.7-8.52,18.91,18.91,0,0,1,1.2-3.85c1.55-3.54,4.17-6.26,7.22-6.33,3.54-.1,5.18,5.49,5.54,7,.06.25.09.39.09.41C216.65,295.37,215.91,296.76,215.06,298.3Z"/><path class="cls-18" d="M187,281.12a30.58,30.58,0,0,0,.15,5.62L167,279.5c1.18-34.84,26.43-62.16,26.43-62.16,6.76,3.66,14,8.12,20.57,11.7C192.71,252.07,187.45,271.93,187,281.12Z"/><path class="cls-16" d="M193.47,217.34l0,0-.13.14c-.15.18-.42.47-.78.9l-.22.26c-.28.32-.59.71-1,1.15l-.7.86c-.52.65-1.09,1.4-1.72,2.22l-.48.64c-.64.86-1.33,1.82-2,2.85l-1,1.42-.69,1c-.19.29-.38.59-.58.87L183,231.56l-.59.95c-.59,1-1.2,2-1.8,3l-.6,1.06c-.4.71-.81,1.44-1.21,2.2s-.74,1.39-1.11,2.11a.89.89,0,0,1-.08.17c-.2.39-.39.79-.59,1.18-1.36,2.78-2.69,5.74-3.89,8.85-.33.85-.65,1.72-1,2.59s-.64,1.86-.94,2.8c-.15.46-.29.92-.44,1.39a86.47,86.47,0,0,0-3.23,15.16c-.11,1-.21,1.93-.29,2.91-.09,1.17-.16,2.34-.2,3.53-.09,2.46-4.59,2.95-6.29,3-4.7.2-16.59-6.66-26.76-13.09-1.87-1.19-3.69-2.37-5.4-3.48V170.41c5.35,3.38,14.12,9.3,23.43,15.64,16.95,11.6,35.61,24.62,38.15,26.28C191.17,213,195,215.74,193.47,217.34Z"/><path class="cls-18" d="M152,186.05c-4.89.67-10.39,2.78-14,8.3-7.08,10.9-10.43,52.35-4,75.07-1.87-1.19-3.69-2.37-5.4-3.48V170.41C133.94,173.79,142.71,179.71,152,186.05Z"/><path class="cls-19" d="M249.46,256.87l.37-.32a12.81,12.81,0,0,1,1.08-.88,11.7,11.7,0,0,1,4.64-2,17.41,17.41,0,0,1,7.19.31,36.57,36.57,0,0,1,3.84,1.15l1.9.68.95.34,1,.38a59.42,59.42,0,0,1,7.11,3.86c2.17,1.3,4.14,2.59,5.94,3.48a23,23,0,0,0,4.45,1.87,8.71,8.71,0,0,0,1.33.32l.48.08-.49,0a8.2,8.2,0,0,1-1.4,0A18.1,18.1,0,0,1,283,265a62.92,62.92,0,0,1-6.37-2.95c-2.26-1.16-4.6-2.53-7-3.53l-.89-.36-1-.36-1.88-.72c-1.23-.46-2.44-.91-3.62-1.26a17.62,17.62,0,0,0-6.55-.94,13.1,13.1,0,0,0-4.59,1.18,12,12,0,0,0-1.22.62Z"/><path class="cls-15" d="M293.38,299.62l-.15-.29c-.11-.18-.23-.46-.44-.78-.39-.67-1-1.58-1.77-2.67s-1.7-2.31-2.7-3.63-2.1-2.7-3.24-4-2.28-2.69-3.38-3.92-2.16-2.36-3.14-3.25c-.47-.45-.91-.87-1.32-1.22s-.75-.69-1.06-.91l-1-.75,1.07.58c.35.19.74.46,1.19.77A13.48,13.48,0,0,1,279,280.6a39.79,39.79,0,0,1,3.42,3c1.19,1.18,2.38,2.51,3.52,3.88s2.22,2.8,3.18,4.17,1.77,2.71,2.45,3.87a24.89,24.89,0,0,1,1.45,2.89c.16.36.24.66.31.85Z"/><path class="cls-15" d="M283.56,308.49l-.7-.74c-.43-.48-1.09-1.14-1.81-2l-2.5-2.82-2.84-3.25c-1-1.12-1.94-2.2-2.86-3.23s-1.78-2-2.57-2.73-1.44-1.41-1.92-1.83l-.78-.66.9.49a23.76,23.76,0,0,1,2.2,1.56c.86.7,1.85,1.55,2.84,2.53s2,2.06,3,3.17,1.92,2.26,2.76,3.36,1.6,2.15,2.25,3,1.14,1.68,1.51,2.22Z"/><path class="cls-15" d="M275.85,318.07l-.72-.5c-.45-.33-1.11-.77-1.85-1.37s-1.64-1.26-2.55-2-1.88-1.58-2.84-2.41-1.9-1.69-2.76-2.51-1.65-1.61-2.33-2.27-1.21-1.26-1.59-1.66l-.59-.65.72.49c.45.34,1.11.78,1.86,1.38s1.63,1.25,2.55,2,1.87,1.58,2.83,2.41,1.89,1.68,2.75,2.5,1.65,1.61,2.33,2.27,1.21,1.27,1.6,1.67Z"/><path class="cls-20" d="M246.13,240.11l.48-.55c.32-.33.76-.83,1.36-1.35s1.31-1.12,2.13-1.69a21.85,21.85,0,0,1,2.68-1.61,18.32,18.32,0,0,1,2.93-1.15c.49-.12,1-.22,1.42-.31l1.3-.13a8.07,8.07,0,0,1,1.93.18l.71.16-.72,0a13.17,13.17,0,0,0-1.85.21l-1.2.3-1.31.43a29.56,29.56,0,0,0-2.74,1.22c-.92.44-1.81.95-2.65,1.44s-1.62.95-2.27,1.38-1.22.77-1.59,1Z"/><path class="cls-19" d="M228.69,321.18l-.95-.72a21.16,21.16,0,0,1-2.33-2.12,11.44,11.44,0,0,1-2.48-3.79,6,6,0,0,1-.33-2.65,6.11,6.11,0,0,1,.28-1.35l.37-1.23c.51-1.64,1.06-3.29,1.65-4.8a42,42,0,0,1,1.8-4,25.34,25.34,0,0,1,1.6-2.71c.45-.61.72-.95.72-.95s-.21.38-.54,1.06-.75,1.66-1.23,2.84-1,2.61-1.48,4.13-1,3.15-1.51,4.79l-.39,1.23a5.48,5.48,0,0,0-.05,3.4,11.72,11.72,0,0,0,2,3.7c.79,1,1.5,1.81,2,2.35Z"/><path class="cls-19" d="M239.64,306.59l-.36.65a15.72,15.72,0,0,0-.87,1.72,14.61,14.61,0,0,0-.87,2.53,16,16,0,0,0-.49,3,12.38,12.38,0,0,0,.11,3,5.51,5.51,0,0,0,1,2.35,15.38,15.38,0,0,0,1.19,1.5c.31.35.5.54.5.54l-.64-.38a9.14,9.14,0,0,1-1.52-1.29,5.81,5.81,0,0,1-1.45-2.52,10.76,10.76,0,0,1-.25-3.27,13.09,13.09,0,0,1,.65-3.19,12.27,12.27,0,0,1,1.24-2.54,10.81,10.81,0,0,1,1.22-1.57Z"/><path class="cls-19" d="M217.36,294.16,217,295c-.25.5-.57,1.22-1,2.05s-.9,1.83-1.43,2.87-1.05,2.17-1.54,3.31-1,2.28-1.35,3.37c-.19.54-.38,1.07-.52,1.58a11.57,11.57,0,0,0-.38,1.45c-.12.45-.18.87-.25,1.24a5.79,5.79,0,0,0-.14,1l-.1.86-.11-.86a9.37,9.37,0,0,1-.05-1,8.64,8.64,0,0,1,.06-1.31,13.42,13.42,0,0,1,.22-1.53,13.86,13.86,0,0,1,.38-1.68,26.65,26.65,0,0,1,1.27-3.52,36.55,36.55,0,0,1,1.69-3.31c.6-1,1.21-1.95,1.74-2.74s1-1.4,1.33-1.85Z"/><path class="cls-21" d="M219.64,235.06s.27.09.74.21,1.16.26,2,.43,1.78.28,2.81.38c.51.06,1.05.08,1.59.14s1.09.05,1.64.06c1.1,0,2.21,0,3.25,0,.51,0,1,0,1.49-.05l1.35-.09,2-.14.77,0-.74.24c-.47.12-1.14.38-2,.53l-1.34.27-1.52.21a30.29,30.29,0,0,1-3.34.13c-.57,0-1.14-.07-1.7-.11s-1.1-.13-1.63-.23a22.7,22.7,0,0,1-2.83-.73,13.9,13.9,0,0,1-1.89-.81C219.87,235.22,219.64,235.06,219.64,235.06Z"/></g></svg>