<svg xmlns="http://www.w3.org/2000/svg" viewBox="0 0 760.76 500"><defs><style>.cls-1{opacity:0.3;}.cls-10,.cls-2,.cls-6,.cls-7,.cls-8{fill:none;stroke-miterlimit:10;}.cls-2{stroke:#2c54ac;stroke-width:1px;stroke-dasharray:4.11 4.11;}.cls-3{fill:#55a3f3;}.cls-10,.cls-3,.cls-4,.cls-5{opacity:0.29;}.cls-4{fill:#fff;}.cls-6,.cls-7,.cls-8{stroke:#55a3f3;}.cls-6{stroke-width:4.35px;}.cls-7,.cls-8{stroke-width:0.65px;}.cls-8{stroke-dasharray:3.91 3.91;}.cls-9{fill:#849ac1;}.cls-10{stroke:#fff;stroke-width:0.7px;stroke-dasharray:2.81;}.cls-11{fill:#8da1c4;}</style></defs><title>landing-vid-bg</title><g id="OBJECTS"><g class="cls-1"><path class="cls-2" d="M470.8,52.91c-25.91,5.37-48.92,16.93-73.37,25.59a332.1,332.1,0,0,1-92.75,18.27c-33.76,1.78-67.73-1.5-101.17,3.11-55.86,7.69-106.2,38.79-127.11,78.53S64.8,265,99.92,296.71c12,10.79,26.56,19.87,37.73,31.13,36.66,36.94,33.42,93.76,81.23,122.71,26.05,15.78,63,19.49,96.94,14.34s65.19-18.28,93.76-33.41c27.56-14.59,55.78-32,88.89-33.36,23-1,44.88,6.15,67.81,7.14,48.79,2.12,96.3-25.62,114.1-60.28s9.35-73.85-13.71-105.34c-13.85-18.93-33-36.16-39.41-57.39-4.23-13.93-2.66-28.61-3.75-43C619.3,83.6,547,37.12,470.8,52.91Z"/></g><path class="cls-3" d="M670.44,430.13a2.84,2.84,0,1,1-2.84-2.84A2.84,2.84,0,0,1,670.44,430.13Z"/><path class="cls-4" d="M656.72,385a2.85,2.85,0,1,1-2.85-2.84A2.85,2.85,0,0,1,656.72,385Z"/><g class="cls-5"><polyline class="cls-6" points="392.22 44.63 402.15 54.57 427.09 29.63"/><polyline class="cls-6" points="362.94 44.63 372.88 54.57 397.81 29.63"/></g><g class="cls-5"><path class="cls-7" d="M131.34,41.06l-2.15,7.49a24.64,24.64,0,0,0-5.59,2.27L116.71,47l-6.17,6.08,3.84,6.81a24.14,24.14,0,0,0-2.31,5.51l-7.58,2.12v8.63l7.58,2.12a24,24,0,0,0,2.31,5.51l-3.84,6.81,6.17,6.08,6.89-3.78a24.64,24.64,0,0,0,5.59,2.27l2.15,7.49h8.73l2.15-7.49a24.64,24.64,0,0,0,5.59-2.27l6.89,3.78,6.16-6.08L157,83.82a24,24,0,0,0,2.31-5.51l7.58-2.12V67.56l-7.58-2.12A24.14,24.14,0,0,0,157,59.93l3.83-6.81L154.7,47l-6.89,3.78a24.64,24.64,0,0,0-5.59-2.27l-2.15-7.49Zm4.36,14.71a16.11,16.11,0,1,1-16.31,16.11A16.25,16.25,0,0,1,135.7,55.77Z"/><ellipse class="cls-8" cx="135.7" cy="71.88" rx="21.34" ry="21.06"/></g><g class="cls-5"><path class="cls-9" d="M130.27,400.24l-2.67,9.31a29.83,29.83,0,0,0-6.95,2.83l-8.58-4.71-7.67,7.57,4.77,8.47a29.88,29.88,0,0,0-2.87,6.86l-9.43,2.64v10.72l9.43,2.65a30.06,30.06,0,0,0,2.87,6.86l-4.77,8.46,7.67,7.57,8.58-4.71a30.29,30.29,0,0,0,6.95,2.84l2.67,9.31h10.87l2.67-9.31a30.29,30.29,0,0,0,6.95-2.84l8.58,4.71L167,461.9l-4.77-8.46a30.06,30.06,0,0,0,2.87-6.86l9.43-2.65V433.21l-9.43-2.64a29.88,29.88,0,0,0-2.87-6.86l4.77-8.47-7.67-7.57-8.58,4.71a29.83,29.83,0,0,0-6.95-2.83l-2.67-9.31Zm5.43,18.3a20,20,0,1,1-20.29,20A20.21,20.21,0,0,1,135.7,418.54Z"/></g><ellipse class="cls-10" cx="135.7" cy="438.57" rx="25.55" ry="25.22"/><g class="cls-5"><path class="cls-7" d="M615.45,41.06l-2.15,7.49a24.57,24.57,0,0,0-5.58,2.27L600.82,47l-6.16,6.08,3.83,6.81a24.12,24.12,0,0,0-2.3,5.51l-7.58,2.12v8.63l7.58,2.12a23.93,23.93,0,0,0,2.3,5.51l-3.83,6.81,6.16,6.08,6.9-3.78a24.57,24.57,0,0,0,5.58,2.27l2.15,7.49h8.74l2.15-7.49a24.38,24.38,0,0,0,5.58-2.27l6.9,3.78L645,90.63l-3.83-6.81a23.5,23.5,0,0,0,2.3-5.51L651,76.19V67.56l-7.58-2.12a23.68,23.68,0,0,0-2.3-5.51L645,53.12,638.82,47l-6.9,3.78a24.38,24.38,0,0,0-5.58-2.27l-2.15-7.49Zm4.37,14.71a16.11,16.11,0,1,1-16.31,16.11A16.25,16.25,0,0,1,619.82,55.77Z"/><ellipse class="cls-8" cx="619.82" cy="71.88" rx="21.34" ry="21.06"/></g><g class="cls-5"><path class="cls-11" d="M652.91,89.31l-1.26,4.38A14.13,14.13,0,0,0,648.39,95l-4-2.22-3.6,3.56,2.24,4a13.88,13.88,0,0,0-1.35,3.22l-4.44,1.24v5l4.44,1.24a14.14,14.14,0,0,0,1.35,3.23l-2.24,4,3.6,3.56,4-2.21a14.58,14.58,0,0,0,3.26,1.33l1.26,4.38H658l1.26-4.38a14.86,14.86,0,0,0,3.27-1.33l4,2.21,3.61-3.56-2.24-4a14.11,14.11,0,0,0,1.34-3.23l4.44-1.24v-5l-4.44-1.24a13.85,13.85,0,0,0-1.34-3.22l2.24-4-3.61-3.56-4,2.22a14.39,14.39,0,0,0-3.27-1.33L658,89.31Zm12.1,18a9.55,9.55,0,1,1-9.54-9.42A9.5,9.5,0,0,1,665,107.34Z"/></g></g></svg>