<svg id="Слой_1" data-name="Слой 1" xmlns="http://www.w3.org/2000/svg" xmlns:xlink="http://www.w3.org/1999/xlink" viewBox="0 0 569 390"><defs><style>.cls-1{fill:none;}.cls-2{fill:#ffb255;}.cls-3{fill:#64a4ff;}.cls-4{fill:#dbd8e3;}.cls-5{fill:#323657;}.cls-6{fill:#eea987;}.cls-7{fill:#e8734d;}.cls-8{fill:#c4c1cc;}.cls-9{fill:#efaa88;}.cls-10{fill:#eea886;}.cls-11{fill:#16202e;}.cls-12{fill:#a77860;}.cls-13{fill:#4da8f2;}.cls-14{fill:#7064f5;}.cls-15{clip-path:url(#clip-path);}.cls-16{fill:#96cbff;}.cls-17{fill:#95caff;}.cls-18{fill:#94c9ff;}.cls-19{fill:#93c9ff;}.cls-20{fill:#92c8ff;}.cls-21{fill:#91c7ff;}.cls-22{fill:#90c6ff;}.cls-23{fill:#8fc6ff;}.cls-24{fill:#8ec5ff;}.cls-25{fill:#8dc4ff;}.cls-26{fill:#8cc3ff;}.cls-27{fill:#8bc2ff;}.cls-28{fill:#8ac2ff;}.cls-29{fill:#89c1ff;}.cls-30{fill:#88c0ff;}.cls-31{fill:#87bfff;}.cls-32{fill:#86bfff;}.cls-33{fill:#85beff;}.cls-34{fill:#84bdff;}.cls-35{fill:#83bcff;}.cls-36{fill:#82bbff;}.cls-37{fill:#81bbff;}.cls-38{fill:#80baff;}.cls-39{fill:#7fb9ff;}.cls-40{fill:#7eb8ff;}.cls-41{fill:#7db7ff;}.cls-42{fill:#7cb7ff;}.cls-43{fill:#7bb6ff;}.cls-44{fill:#7ab5ff;}.cls-45{fill:#79b4ff;}.cls-46{fill:#78b4ff;}.cls-47{fill:#77b3ff;}.cls-48{fill:#76b2ff;}.cls-49{fill:#74b1ff;}.cls-50{fill:#73b0ff;}.cls-51{fill:#72b0ff;}.cls-52{fill:#71afff;}.cls-53{fill:#70aeff;}.cls-54{fill:#6fadff;}.cls-55{fill:#6eadff;}.cls-56{fill:#6dacff;}.cls-57{fill:#6cabff;}.cls-58{fill:#6baaff;}.cls-59{fill:#6aa9ff;}.cls-60{fill:#69a9ff;}.cls-61{fill:#68a8ff;}.cls-62{fill:#67a7ff;}.cls-63{fill:#66a6ff;}.cls-64{fill:#65a6ff;}.cls-65{fill:#64a5ff;}.cls-66{fill:#63a4ff;}.cls-67{fill:#62a3ff;}.cls-68{fill:#61a2ff;}.cls-69{fill:#60a2ff;}.cls-70{fill:#5fa1ff;}.cls-71{fill:#5ea0ff;}.cls-72{fill:#5d9fff;}.cls-73{fill:#5c9eff;}.cls-74{fill:#5b9eff;}.cls-75{fill:#5a9dff;}.cls-76{fill:#599cff;}.cls-77{fill:#589bff;}.cls-78{fill:#579bff;}.cls-79{fill:#569aff;}.cls-80{fill:#59f;}.cls-81{fill:#3f3cd3;}.cls-82{fill:#6069a8;}.cls-83{fill:#202338;}.cls-84{fill:#464240;}.cls-85{fill:#eb4747;}.cls-86{fill:#5f8cc9;}.cls-87{fill:#5e5853;}.cls-88{fill:#91887f;}.cls-89{fill:#eddad3;}.cls-90{fill:#6e6760;}.cls-91{fill:#807066;}.cls-92{fill:#ffcb55;}.cls-93{fill:#cf8c6c;}.cls-94{fill:#3b3f66;}.cls-95{fill:#555c94;}.cls-96{fill:#354c70;}.cls-97{fill:#deb135;}.cls-98{fill:#f2c344;}.cls-99{fill:#d9d0c4;}.cls-100{fill:#ffd255;}.cls-101{fill:#3c5780;}.cls-102{fill:#c48a6f;}.cls-103{clip-path:url(#clip-path-2);}.cls-104{fill:#db9c7c;}.cls-105{clip-path:url(#clip-path-3);}.cls-106{fill:#293b57;}.cls-107{fill:#e3f2ff;}.cls-108{fill:#ebebeb;}.cls-109{fill:#162d40;}.cls-110{fill:#1d3b54;}.cls-111{fill:#d1c0ba;}.cls-112{fill:#fae6de;}.cls-113{fill:#54281a;}.cls-114{fill:#366e9c;}.cls-115{fill:#5c544d;}.cls-116{fill:#3c4145;}.cls-117{fill:#fccca2;}.cls-118{fill:#e2d2ca;}.cls-119{fill:#f25f54;}.cls-120{fill:#c98462;}.cls-121{fill:#de9d7d;}.cls-122{fill:#252e3b;}.cls-123{fill:#5fa0ff;}.cls-124{fill:#c2bebc;}.cls-125{fill:#d6d6d6;}.cls-126{fill:#e8e8e8;}.cls-127{fill:#c2c2c2;}</style><clipPath id="clip-path"><rect class="cls-1" x="48.42" y="262.41" width="308.12" height="4.88"/></clipPath><clipPath id="clip-path-2"><path class="cls-1" d="M314.66,295.11l.54-.25-2.42-5.13-1.36.63,2.05,4.36A.84.84,0,0,0,314.66,295.11Z"/></clipPath><clipPath id="clip-path-3"><polygon class="cls-1" points="309.64 290.84 314.97 289.85 314.1 285.47 308.81 286.68 309.64 290.84"/></clipPath></defs><title>landing-image</title><path class="cls-2" d="M538.83,270.71a65.9,65.9,0,0,0,7.21-17l12.75-2.44.14-14.11.13-14.11-12.71-2.68a66.15,66.15,0,0,0-6.89-17.1l7.29-10.74-9.89-10.07L527,172.41l-10.88,7.08a65.69,65.69,0,0,0-17-7.21l-2.44-12.75-14.11-.13-14.11-.14L465.79,172a66.36,66.36,0,0,0-17.11,6.89L438,171.58l-10.08,9.88-10.06,9.88,7.08,10.88a65.83,65.83,0,0,0-7.21,17l-12.75,2.44-.13,14.11-.14,14.11,12.71,2.68a66.21,66.21,0,0,0,6.89,17.11L417,280.38l9.88,10.07,9.88,10.07,10.88-7.09a65.83,65.83,0,0,0,17,7.21L467,313.39l14.11.14,14.11.13L497.93,301A65.86,65.86,0,0,0,515,294.06l10.74,7.29,10.07-9.89,10.07-9.88Zm-81.66-10a34.6,34.6,0,1,1,48.92.45A34.6,34.6,0,0,1,457.17,260.7Z"/><path class="cls-2" d="M203.76,156.79a49.49,49.49,0,0,0,4.06-13.16l9.29-2.79-1-10.49-1-10.49-9.65-1a48.87,48.87,0,0,0-6.42-12.18l4.59-8.54-8.11-6.72-8.11-6.73-7.53,6.09a49.47,49.47,0,0,0-13.16-4.05L164,77.42l-10.49,1-10.49,1L142,89a49.2,49.2,0,0,0-12.18,6.42l-8.53-4.59L114.53,99l-6.73,8.11,6.1,7.54a49.06,49.06,0,0,0-4.06,13.15l-9.29,2.79,1,10.49,1,10.49,9.64,1a49.6,49.6,0,0,0,6.43,12.18l-4.6,8.53,8.11,6.72,8.11,6.73,7.54-6.09a49.49,49.49,0,0,0,13.16,4.06l2.79,9.28,10.49-1,10.49-1,1-9.65A49.38,49.38,0,0,0,187.87,176l8.53,4.59,6.73-8.11,6.72-8.11Zm-61.42-1.21a25.83,25.83,0,1,1,36.37-3.39A25.82,25.82,0,0,1,142.34,155.58Z"/><path class="cls-3" d="M515.07,369h-.88V306.1a25.4,25.4,0,0,0-25.37-25.37H424.14a26.29,26.29,0,0,1-26.26-26.25V137a25.4,25.4,0,0,0-25.36-25.37H207.59v-.88H372.52A26.28,26.28,0,0,1,398.77,137V254.48a25.4,25.4,0,0,0,25.37,25.37h64.68a26.28,26.28,0,0,1,26.25,26.25Z"/><path class="cls-4" d="M265.35,166.85q1.17-15.67,1.62-29.33c-2.52-1.34-5.55-2.9-8-4.05-7.51-3.58-18-8.39-24.68-11.47-3.93-1.8-7.78-3.12-7.78-3.12s-26.82-2.57-29-2.43a66.44,66.44,0,0,0-8.43,2.88c-9.51,3.61-27.85,11-30.77,13.06-4.28,3.06-19.6,78.16-20,83.26s20.84,11.73,40.5,16.93c0,7.61-.17,18.28-.34,28,0,1.67-.06,3.3-.09,4.88h86c-.12-1.67-.22-3.32-.31-4.88,0-.21,0-.41,0-.61-.32-6.6-1.61-18.41-1.28-29.91,0,0-.21-12.13,1-17.35C264,189.67,265.35,166.85,265.35,166.85ZM156.25,211c.14-9.78,13.16-28,13.16-28a6.37,6.37,0,0,1,.61-.23s.67-.09.67-.08,2-1.92,2-1.92c.47,1.74,4.79,26.3,5.84,40.6C166.35,219,156.18,215.67,156.25,211Z"/><path class="cls-5" d="M267,260.59c-.57-4.07-1.11-8.14-1.59-12.13,0,0,0,0,0-.05-.15-1.33-.31-2.64-.46-3.95,0-.06,0-.13,0-.2-.63-5.49-1.15-10.76-1.53-15.58a49.34,49.34,0,0,1,.48-10.83c1.5-24.66,2.24-50.65,2.24-50.65.79-10.64,1.24-20.59,1.54-29.86,0,0-33.68-15.91-36.73-16.82,0,0,6.39,15,11.18,48.53,1.84,12.87,5.25,34.55,7.73,56.67h0c1.34,11.94,3.85,24.1,5.76,34.86.29,1.67.57,3.29.83,4.88h11.27C267.4,263.85,267.17,262.22,267,260.59Z"/><path class="cls-5" d="M210.87,221c1.33-12.47,2.52-24.91,1.95-31.72-4.65-54.81-17.79-69.31-19.7-71.43-1.47.56-7.08,2.66-8.72,3.31-9,3.55-27.31,10-29.78,11.82-4.28,3.06-21.16,81.79-21.67,86.88-.34,3.45,21.69,10.64,44.16,17.06-.2,6.16.38,14.85-1.67,23.93a20.77,20.77,0,0,0-1,4.76l31.33-.13c.19-1.62.39-3.24.59-4.88.6-4.89,1.22-9.91,1.84-15.24,9.4,2.43,15.79,4,15.79,4s8.82-14.92,11.38-21C235.84,227.35,224.48,224.62,210.87,221Zm-40.51-18.86c-.3-11.22-.25-19-.25-19,1.11,3.84,2.65,14.83,4,25.75C169.56,206.53,170.41,204.39,170.36,202.13Z"/><path class="cls-6" d="M196.14,117.3s3.41-6.44,2.47-24.74c-.27-5.07,26.63,12,26.63,12s-.1,1.75-.15,4.11c0,1-.05,2-.05,3.16v.92c0,.5,0,1,0,1.49s0,1.21.07,1.79.07,1.29.13,1.86a16.68,16.68,0,0,0,1,3.59C227.49,124.34,206.21,124.51,196.14,117.3Z"/><path class="cls-7" d="M218.68,128.94l5,6.66s-2.9,3.89-8.06,1Z"/><path class="cls-7" d="M222.31,135.87s18.16,44.35,14.29,100.69L230.87,247l-6.46-8.85s-1-74.82-6.19-102.4Z"/><path class="cls-6" d="M224,122.74l-5.31,6.2s-8.51-1.65-11-6.09S224,122.74,224,122.74Z"/><path class="cls-8" d="M225.21,117.3s-.62,4.74-6.53,11.64l6.45,8.67,3.49-18Z"/><path class="cls-8" d="M197.76,111.61s12.31,13.93,20.92,17.33l-4,9.91L195,117.17Z"/><path class="cls-5" d="M324.35,237.63S308,221.78,297.29,219.14c-5-1.22-11.49-8.06-17.69-16.11-2-2.64-4.05-5.42-6-8.17v0c-7.61-11-13.58-21.52-13.58-21.52s-22.49-26.36-4.44-38.11c0,0,7.74-.17,12,2.14s13.67,21.79,15.25,25.23,18.67,35.38,19.81,36.1,3.06,3.35,9.9,7c8.37,4.51,21.53,17.7,21.53,17.7Z"/><path class="cls-9" d="M245.89,256a10.52,10.52,0,0,1-3.26-.61s-1.71-1.1-3-1.81c-.4-.22-.76-.4-1-.5a18.88,18.88,0,0,1-5.49-2.62c-2.15-1.63-9.15-8.19-9.15-8.19l4.52-7,2.1-6.9S247,230,249.15,231.3a7,7,0,0,1,.6.41c1.74,1.27,2.5,2.95,3.34,3.72.3.29,3.15,3.34,3,4.57a4.08,4.08,0,0,1-2.13,3.34s-.58,3.34-2.31,4.83a6,6,0,0,1-3.1,4.34S247.75,255.6,245.89,256Z"/><path class="cls-10" d="M219.88,45.34s29.53-7.12,23.31,30.27-13.31,40.42-31.29,33-16.74-31.36-17.81-43.06S210.43,45.89,219.88,45.34Z"/><path class="cls-10" d="M204.36,71.23c-.43-3.28-7-4.39-7.4.55s3.15,13.54,5.6,12.65S205,75.76,204.36,71.23Z"/><path class="cls-11" d="M195.81,84.62s.59-11.76,4.88-12.19,5,4.29,5,4.29l4.35.76s-1.52-10.28,2.74-12.14S240.63,70.6,244,67.53s1.47-23.94-4.79-26.71-23.53-8.92-36-.21c0,0-9.83-1-11.17,7S193.06,78.77,195.81,84.62Z"/><path class="cls-5" d="M236.21,228.38l-12.19,21s-32.3-8.33-39.84-10.45l17.23-20.51S226.81,224.2,236.21,228.38Z"/><path class="cls-12" d="M225.13,116.05h0a28.23,28.23,0,0,1-22-13.8,32.77,32.77,0,0,0,21.9,9.6v.92c0,.5,0,1,0,1.49S225.1,115.47,225.13,116.05Z"/><path class="cls-13" d="M443.84,301.86a4.82,4.82,0,0,0-8.42,1.35h0a5.16,5.16,0,0,0-.25,1.48,4.86,4.86,0,0,0,.29,1.72,5,5,0,0,0,1.58,2.16,4.79,4.79,0,0,0,2.51,1l.38,0h.32a5.2,5.2,0,0,0,1.38-.28,4.82,4.82,0,0,0,2.21-7.43Zm-2.62,6.29h0a3.56,3.56,0,0,1-1,.21h-.24a3.53,3.53,0,0,1-1-.16,3.3,3.3,0,0,1-1.18-.6,2.74,2.74,0,0,1-.36-.32,3.54,3.54,0,0,1-1-2.58,3.16,3.16,0,0,1,.09-.76,3.63,3.63,0,0,1,3.57-2.81,3.61,3.61,0,0,1,1.18,7Z"/><path class="cls-10" d="M259.13,211.17c18.35,18.89,42.61,42.69,42.61,42.69l9.48-18s-21.54-25.25-36.15-42.1C270.6,196,262.38,201.19,259.13,211.17Z"/><path class="cls-10" d="M247.79,236.58A52.76,52.76,0,0,1,254,240c1.29,1.06,6.52,5,7.79,5.9s-1.91,3.54-11.26-.51S247.79,236.58,247.79,236.58Z"/><polygon class="cls-14" points="248.22 182.49 239.61 262.57 352.98 262.57 361.6 182.49 248.22 182.49"/><path class="cls-14" d="M359.45,258.88H245.19l8.71-81H368.16ZM246.17,258H358.66l8.52-79.2H254.69Z"/><rect class="cls-14" x="230.58" y="255.37" width="18.94" height="7.21" transform="translate(480.11 517.95) rotate(180)"/><g class="cls-15"><rect class="cls-16" x="48.42" y="262.41" width="4.74" height="4.88"/><rect class="cls-17" x="53.16" y="262.41" width="4.74" height="4.88"/><rect class="cls-18" x="57.9" y="262.41" width="4.74" height="4.88"/><rect class="cls-19" x="62.64" y="262.41" width="4.74" height="4.88"/><rect class="cls-20" x="67.38" y="262.41" width="4.74" height="4.88"/><rect class="cls-21" x="72.12" y="262.41" width="4.74" height="4.88"/><rect class="cls-22" x="76.86" y="262.41" width="4.74" height="4.88"/><rect class="cls-23" x="81.6" y="262.41" width="4.74" height="4.88"/><rect class="cls-24" x="86.34" y="262.41" width="4.74" height="4.88"/><rect class="cls-25" x="91.08" y="262.41" width="4.74" height="4.88"/><rect class="cls-26" x="95.82" y="262.41" width="4.74" height="4.88"/><rect class="cls-27" x="100.56" y="262.41" width="4.74" height="4.88"/><rect class="cls-28" x="105.3" y="262.41" width="4.74" height="4.88"/><rect class="cls-29" x="110.04" y="262.41" width="4.74" height="4.88"/><rect class="cls-30" x="114.78" y="262.41" width="4.74" height="4.88"/><rect class="cls-31" x="119.52" y="262.41" width="4.74" height="4.88"/><rect class="cls-32" x="124.26" y="262.41" width="4.74" height="4.88"/><rect class="cls-33" x="129" y="262.41" width="4.74" height="4.88"/><rect class="cls-34" x="133.74" y="262.41" width="4.74" height="4.88"/><rect class="cls-35" x="138.48" y="262.41" width="4.74" height="4.88"/><rect class="cls-36" x="143.22" y="262.41" width="4.74" height="4.88"/><rect class="cls-37" x="147.96" y="262.41" width="4.74" height="4.88"/><rect class="cls-38" x="152.71" y="262.41" width="4.74" height="4.88"/><rect class="cls-39" x="157.45" y="262.41" width="4.74" height="4.88"/><rect class="cls-40" x="162.19" y="262.41" width="4.74" height="4.88"/><rect class="cls-41" x="166.93" y="262.41" width="4.74" height="4.88"/><rect class="cls-42" x="171.67" y="262.41" width="4.74" height="4.88"/><rect class="cls-43" x="176.41" y="262.41" width="4.74" height="4.88"/><rect class="cls-44" x="181.15" y="262.41" width="4.74" height="4.88"/><rect class="cls-45" x="185.89" y="262.41" width="4.74" height="4.88"/><rect class="cls-46" x="190.63" y="262.41" width="4.74" height="4.88"/><rect class="cls-47" x="195.37" y="262.41" width="4.74" height="4.88"/><rect class="cls-48" x="200.11" y="262.41" width="4.74" height="4.88"/><rect class="cls-49" x="204.85" y="262.41" width="4.74" height="4.88"/><rect class="cls-50" x="209.59" y="262.41" width="4.74" height="4.88"/><rect class="cls-51" x="214.33" y="262.41" width="4.74" height="4.88"/><rect class="cls-52" x="219.07" y="262.41" width="4.74" height="4.88"/><rect class="cls-53" x="223.81" y="262.41" width="4.74" height="4.88"/><rect class="cls-54" x="228.55" y="262.41" width="4.74" height="4.88"/><rect class="cls-55" x="233.29" y="262.41" width="4.74" height="4.88"/><rect class="cls-56" x="238.03" y="262.41" width="4.74" height="4.88"/><rect class="cls-57" x="242.77" y="262.41" width="4.74" height="4.88"/><rect class="cls-58" x="247.51" y="262.41" width="4.74" height="4.88"/><rect class="cls-59" x="252.25" y="262.41" width="4.74" height="4.88"/><rect class="cls-60" x="256.99" y="262.41" width="4.74" height="4.88"/><rect class="cls-61" x="261.73" y="262.41" width="4.74" height="4.88"/><rect class="cls-62" x="266.47" y="262.41" width="4.74" height="4.88"/><rect class="cls-63" x="271.21" y="262.41" width="4.74" height="4.88"/><rect class="cls-64" x="275.95" y="262.41" width="4.74" height="4.88"/><rect class="cls-65" x="280.69" y="262.41" width="4.74" height="4.88"/><rect class="cls-66" x="285.43" y="262.41" width="4.74" height="4.88"/><rect class="cls-67" x="290.17" y="262.41" width="4.74" height="4.88"/><rect class="cls-68" x="294.92" y="262.41" width="4.74" height="4.88"/><rect class="cls-69" x="299.66" y="262.41" width="4.74" height="4.88"/><rect class="cls-70" x="304.4" y="262.41" width="4.74" height="4.88"/><rect class="cls-71" x="309.14" y="262.41" width="4.74" height="4.88"/><rect class="cls-72" x="313.88" y="262.41" width="4.74" height="4.88"/><rect class="cls-73" x="318.62" y="262.41" width="4.74" height="4.88"/><rect class="cls-74" x="323.36" y="262.41" width="4.74" height="4.88"/><rect class="cls-75" x="328.1" y="262.41" width="4.74" height="4.88"/><rect class="cls-76" x="332.84" y="262.41" width="4.74" height="4.88"/><rect class="cls-77" x="337.58" y="262.41" width="4.74" height="4.88"/><rect class="cls-78" x="342.32" y="262.41" width="4.74" height="4.88"/><rect class="cls-79" x="347.06" y="262.41" width="4.74" height="4.88"/><rect class="cls-80" x="351.8" y="262.41" width="4.74" height="4.88"/></g><rect class="cls-49" x="277.87" y="366.52" width="266.96" height="4.88"/><path class="cls-81" d="M294.31,221.25c-.92,4.46,1.16,8.65,4.64,9.36s7-2.33,7.95-6.79-1.17-8.65-4.65-9.36S295.22,216.79,294.31,221.25Z"/><path class="cls-82" d="M510.53,189.5s2.62,4.44,3.72,5.16c1.5,1,.56,2-.15,2s-4.35.26-5.15-.65-1.2-3.63-1.94-4.34-1.51-3.55.36-4.24C509,186.8,510.53,189.5,510.53,189.5Z"/><path class="cls-83" d="M509.4,187.55s3,5.2,3.51,6-1,.77-1.89.4-3.24-4.08-3.58-4.76a2.56,2.56,0,0,1-.07-1.74Z"/><polygon class="cls-82" points="506.37 190.35 507.06 195.67 507.43 195.69 507.31 191.86 506.37 190.35"/><path class="cls-82" d="M484.6,189.5s2.61,4.44,3.72,5.16c1.5,1,.56,2-.15,2s-4.35.26-5.15-.65-1.2-3.63-1.94-4.34-1.54-3.62.36-4.24C483.11,186.87,484.6,189.5,484.6,189.5Z"/><path class="cls-83" d="M483.62,187.56s2.84,5.19,3.36,5.95-1,.77-1.9.4-3.24-4.08-3.57-4.76a2.49,2.49,0,0,1-.07-1.74Z"/><polygon class="cls-82" points="480.43 190.35 481.13 195.67 481.49 195.69 481.38 191.86 480.43 190.35"/><path class="cls-83" d="M473,149.16l23.66,10.78a4.56,4.56,0,0,1,2.94,3.79c.92,9.16,7.77,23.68,7.77,23.68,2.2,1.08,2,.14,2,.14-1.38-4.44-3.07-22.76-3.67-30.13-.13-1.56-.21-2.62-.22-3s-.27-.53-.71-.89c-3.25-2.63-16.61-8.08-16.61-8.08C478.16,145.22,473,149.16,473,149.16Z"/><path class="cls-83" d="M468.54,153.79c.73,6.4,9.86,5.66,9.86,5.66h11.07a68.82,68.82,0,0,0-4,11.93c-1.19,5.79-4,16-4,16s.18.35,2.18.16c0,0,8.69-17.32,12-21.67a29.71,29.71,0,0,0,3.12-9.06c.11-1,0-1.8-.34-2.12a25.68,25.68,0,0,0-2.44-1.67c-3.47-2.19-9.49-5.56-12.84-6.31-4.5-1-11.6-2.9-11.6-2.9A12.2,12.2,0,0,0,468.54,153.79Z"/><path class="cls-84" d="M476.07,104.52a10.31,10.31,0,0,1-.85-6.5c.81-3.35,3.91-6.68,8.46-5.15s8.23,5.07,5.5,9.15,2.47,5.94,1.15,7.88-.82,4-.26,4.43,2.37,2.06,2.17,4-8.83-5.56-8.83-5.56S478.71,103.29,476.07,104.52Z"/><path class="cls-85" d="M489.94,144.71s-.69,3.33-18.36-.87C471.58,143.84,477.5,141.87,489.94,144.71Z"/><path class="cls-86" d="M471.37,144.77c-.27.52-.54,1-.82,1.57l19.39.56c-1-3.42-.69-8.05-.52-11.57.22-4.3,2.6-7.29,2.34-11.63,1.28.21,1.5.25,2.78.44-2-5.58-2.63-8.34-8.71-10.49a11.42,11.42,0,0,0-5.42-.66c-7,.58-9.17.67-12.63,7.05,5.42.86,4.53,2.81,6.17,8.19.8,2.63,1.63,5.56,1.21,8.33S471.37,142.28,471.37,144.77Z"/><path class="cls-10" d="M482.62,115c-2.89-.54-2.27-2.14-2.27-2.14s.13-.91.18-2c0-.29,0-.6,0-.92a10.9,10.9,0,0,0-.08-1.41c-.23-1.94,5.24-.78,5.24-.78s-.32,3.91.43,5.08S485.5,115.55,482.62,115Z"/><path class="cls-10" d="M477.12,112.85s5.81,6.71,8,8.27c0,0,2.47-2.23.95-8.13C486,113,483.22,111.59,477.12,112.85Z"/><path class="cls-10" d="M477.27,96.69s-3,5.82,0,11.33,8.88-2.4,9.26-3.33,2.4-6.18-1.62-7.77S478.13,95.11,477.27,96.69Z"/><path class="cls-84" d="M478.28,98.75s-2.08,2.73-2.33,4.75A10.85,10.85,0,0,1,477.47,96c2.34-3.66,8.28-.17,9.08,1.29s3.13,2.75-.79,9C485.76,106.36,478.71,101.46,478.28,98.75Z"/><path class="cls-12" d="M483.1,108.6a5.64,5.64,0,0,1-2.57,2.21c0-.29,0-.6,0-.92A4.82,4.82,0,0,0,483.1,108.6Z"/><path class="cls-10" d="M452.59,139.54s-1.44.63-2.12.34a6.27,6.27,0,0,0-2.07-.34c-.44,0-1.83-.5-1.81,0s2.26.93,2.72,1.09-1.37,1.18-1.54,1.62,1.89,3.38,3.05,2.54,1.79-2.5,2-2.6a10.25,10.25,0,0,0,.87-.57Z"/><path class="cls-10" d="M448,142s-3.37,2.8-3.42,3.17.13.56.45.31l3.34-2.6s-3.37,4-3.49,4.28.26.53.45.41,3.78-3.86,3.78-3.86-3.15,3.72-3.16,4a.36.36,0,0,0,.61.25c.26-.26,3.38-3.55,3.38-3.55s-2.1,2.86-2,3.11.35.48.86-.28,1.94-2.4,1.94-2.4Z"/><path class="cls-14" d="M488.31,159.45H478.4s-9.13.74-9.86-5.66a12.2,12.2,0,0,1,3-9.95s4.82,1.28,9,2.3a32.29,32.29,0,0,1,7.62-.66s17.85,5.9,17.32,9C505.51,154.48,498,150.49,488.31,159.45Z"/><polygon class="cls-87" points="481.86 148.38 500.76 148.1 491.22 152.94 481.86 148.38"/><path class="cls-86" d="M487.73,146a16.13,16.13,0,0,1-9.46.16l-.25-2,10.73.6Z"/><polygon class="cls-88" points="491.22 152.94 481.86 149.32 481.86 148.38 491.96 152.02 491.22 152.94"/><path class="cls-89" d="M487.67,146.86a.93.93,0,0,0,1.29.93l1.1-.47a.79.79,0,0,0,.47-.84c-.46-2.86-1.44-14,0-15.9a7,7,0,0,0,1.05-1.86c.94,2.44,2.12,5.58,2.59,7.27l8.93,11.87,3,.76a100.13,100.13,0,0,0-6.74-13.77c-.58-1.56-2.26-6.32-3.74-10.55-.94-2.67-1.8-5.13-2.26-6.45a3,3,0,0,0-1.3-1.6c-1.39-.83-3.69-2.13-5.78-3.15h0l-.2-.1h0c4,6,2.42,23,1.64,33.85Z"/><path class="cls-89" d="M472.92,113.5c-1.28.2-4.43,3.27-6.11,6.36-1.91,3.53-3.86,7.55-5.32,8.87-2.68,2.43-10.19,11-10.55,10.81a22.68,22.68,0,0,0,2.34,2.69c.14.06,12.34-10.51,13.52-12.12s4.08-7.94,5-7.8h0a47.18,47.18,0,0,1,2.18,5.91.84.84,0,0,0,.05.17,19,19,0,0,1,.26,7.9,26.66,26.66,0,0,1-2.93,7.55,1.29,1.29,0,0,0,0,.92h0a.67.67,0,0,0,.33.38l3.58,1.33.85.31a1.84,1.84,0,0,0,2.45-1.48c.8-6.13,1.81-12.39,2.61-14.75a22.32,22.32,0,0,0-1.38-18.13A68,68,0,0,0,472.92,113.5Z"/><polygon class="cls-90" points="491.22 152.94 496.84 137.59 514.96 137.89 509.6 152.03 491.22 152.94"/><path class="cls-91" d="M502.64,144.38c-.56,1.11-.39,2.31.37,2.69s1.82-.21,2.37-1.31.39-2.31-.37-2.69S503.19,143.28,502.64,144.38Z"/><path class="cls-84" d="M483.53,102.48a3.25,3.25,0,0,1,.09,3.37c-1.07,1.56.27,3.09.5,4.73s-4.47,6,.77,8.24,6.9-1.44,5.56-3.44a11.37,11.37,0,0,1-2.39-6.5C487.94,106,487,101.56,483.53,102.48Z"/><polygon class="cls-92" points="457.94 94.98 468.86 94.98 468.86 102.9 468.86 104.57 467.19 102.9 457.94 102.9 457.94 94.98"/><path class="cls-10" d="M310.77,293.68l.6-1.48a3.32,3.32,0,0,1,1.19-.82,3.78,3.78,0,0,1,1.67-.41.55.55,0,0,1,.36.34,1.07,1.07,0,0,1,.1.57.69.69,0,0,1,.25.62.6.6,0,0,1,.13.66.51.51,0,0,1,.14.55,4,4,0,0,0-.65.49,9.46,9.46,0,0,1-2.36,1.16S311,295.38,310.77,293.68Z"/><path class="cls-93" d="M312.61,293a3.61,3.61,0,0,1-.08.89c-.1.2,1.41.63,1.41.63S313.46,293,312.61,293Z"/><polygon class="cls-94" points="284.49 361.02 285.15 358.97 287.94 359.42 287.52 361.27 284.49 361.02"/><polygon class="cls-95" points="307.31 360.78 307.47 361.9 310.52 361.4 310.35 359.71 307.31 360.78"/><path class="cls-96" d="M300.71,329.21s-.45,2.45-1,5.16l-.27,1.44c-.51,2.61-1,5.13-1.22,5.65-.43,1.18-9.76,18.28-9.76,18.28s-3.82-.29-4-.78c0,0,7.82-18.57,7.78-19.24s.95-19.71.95-19.71S300.51,328.11,300.71,329.21Z"/><path class="cls-96" d="M305,318.92s3.65,18.7,4,20.13,1.69,20.58,1.69,20.58-.82,1.7-3.85,1.06c0,0-4.13-20.58-4.48-21.27-1.35-2.68-8-15.64-8.63-17.49a11.14,11.14,0,0,1-.45-4S298.15,315.15,305,318.92Z"/><path class="cls-97" d="M303.44,294.7s1.6,4,2,3.88,5-5.53,5-5.53,2.11,2.63,1.82,2.93-5.82,9.46-6.57,9.3-4.09-5.69-4.09-5.69S301.42,295.42,303.44,294.7Z"/><path class="cls-98" d="M296.59,287.08a65.29,65.29,0,0,1,5.3,4.43c1.15,1.26,4.31,6.48,4.08,8.05a113.46,113.46,0,0,0-1.31,15.26c0,3.58,1.11,4.5.4,4.55s-11.26,3.85-12.81,4.31c0,0,1-12.6,1.53-14.06S292.13,292.93,296.59,287.08Z"/><path class="cls-99" d="M323.34,281.06l.93,4.69.93,4.7a25.57,25.57,0,0,0-11.38-.47l-.41-2.07-.41-2.08A25.77,25.77,0,0,0,323.34,281.06Z"/><path class="cls-34" d="M307.47,361.91s2.3-.45,2.38-.52.57-1,.93-.82.36,1.26.71,1.45,3.09,2,3.43,2.38,2.41.14,2.65.73.26,2-2.84,1.64-6.65.18-7.31-.18S307.25,362.8,307.47,361.91Z"/><path class="cls-34" d="M284.46,361s2.34-.07,2.43-.13.72-.87,1.05-.66.15,1.31.46,1.55,2.73,2.51,3,2.9,2.36.52,2.51,1.14-.07,2-3.08,1.17-6.58-.89-7.18-1.36S284.1,361.82,284.46,361Z"/><path class="cls-6" d="M302.65,319.79s.28,1.13.72,1.38-2.09,2.68-2.09,2.68a22.65,22.65,0,0,1-1-2.48A15.55,15.55,0,0,1,302.65,319.79Z"/><path class="cls-100" d="M294.75,292s-3,14.18-3.23,15.63,8.74,14.49,8.74,14.49l3-1.77S296,307.19,296,306.59s3.47-12,3.47-12a2.69,2.69,0,1,0-4.74-2.56Z"/><path class="cls-101" d="M304.39,320.76a48.43,48.43,0,0,1,.91,6.3c-.06,1.48-5.56-2.32-5.28-3.79Z"/><path class="cls-10" d="M296.59,287.08s7.57,8.26,7.1,7.34c-1.66-3.26-2.82-3.81-2.8-4.42s.2-1.83.23-2.28c.06-.87.13-1.57.13-1.57s-3.76-5.28-3.59-3.48A11,11,0,0,1,296.59,287.08Z"/><path class="cls-10" d="M303.8,277.35a18.73,18.73,0,0,1,1.05,3,12.89,12.89,0,0,0,0,1.67,24,24,0,0,1,.59,2.51c-.08.48-1.09.23-1.23,1s-.87,2.26-1.23,2.29c-.94.08-4.53-1.38-4.75-2.13s-1.53-4.93-1.94-5.73,6.32-5.16,6.93-3.9Z"/><path class="cls-11" d="M294.66,279.16c-.48-2.07,1.9-2.32,1.9-2.32s1.55-1.81,5.26-1.59S305,280.3,305,280.3a14,14,0,0,0-3.69-.1,17.82,17.82,0,0,0,0,2.58l-1.4-.12s.15-1.84-.52-1.93-.89,3.89-2.15,4.76a1.36,1.36,0,0,0-.16-.55h0a16.38,16.38,0,0,1-1-2A23,23,0,0,1,294.66,279.16Z"/><path class="cls-10" d="M300.29,281.18a1.08,1.08,0,0,0-1.76-.5c-.89.67,0,3,.9,3S300.66,282.4,300.29,281.18Z"/><path class="cls-102" d="M298,285.06a2.76,2.76,0,0,0,.39.92,7.86,7.86,0,0,0,2.77,1.45L301,288.9S297.82,287.67,298,285.06Z"/><g class="cls-103"><rect class="cls-16" x="311.42" y="289.73" width="0.06" height="5.62"/><rect class="cls-17" x="311.48" y="289.73" width="0.06" height="5.62"/><rect class="cls-18" x="311.54" y="289.73" width="0.06" height="5.62"/><rect class="cls-19" x="311.6" y="289.73" width="0.06" height="5.62"/><rect class="cls-20" x="311.65" y="289.73" width="0.06" height="5.62"/><rect class="cls-21" x="311.71" y="289.73" width="0.06" height="5.62"/><rect class="cls-22" x="311.77" y="289.73" width="0.06" height="5.62"/><rect class="cls-23" x="311.83" y="289.73" width="0.06" height="5.62"/><rect class="cls-24" x="311.89" y="289.73" width="0.06" height="5.62"/><rect class="cls-25" x="311.94" y="289.73" width="0.06" height="5.62"/><rect class="cls-26" x="312" y="289.73" width="0.06" height="5.62"/><rect class="cls-27" x="312.06" y="289.73" width="0.06" height="5.62"/><rect class="cls-28" x="312.12" y="289.73" width="0.06" height="5.62"/><rect class="cls-29" x="312.18" y="289.73" width="0.06" height="5.62"/><rect class="cls-30" x="312.24" y="289.73" width="0.06" height="5.62"/><rect class="cls-31" x="312.29" y="289.73" width="0.06" height="5.62"/><rect class="cls-32" x="312.35" y="289.73" width="0.06" height="5.62"/><rect class="cls-33" x="312.41" y="289.73" width="0.06" height="5.62"/><rect class="cls-34" x="312.47" y="289.73" width="0.06" height="5.62"/><rect class="cls-35" x="312.53" y="289.73" width="0.06" height="5.62"/><rect class="cls-36" x="312.58" y="289.73" width="0.06" height="5.62"/><rect class="cls-37" x="312.64" y="289.73" width="0.06" height="5.62"/><rect class="cls-38" x="312.7" y="289.73" width="0.06" height="5.62"/><rect class="cls-39" x="312.76" y="289.73" width="0.06" height="5.62"/><rect class="cls-40" x="312.82" y="289.73" width="0.06" height="5.62"/><rect class="cls-41" x="312.87" y="289.73" width="0.06" height="5.62"/><rect class="cls-42" x="312.93" y="289.73" width="0.06" height="5.62"/><rect class="cls-43" x="312.99" y="289.73" width="0.06" height="5.62"/><rect class="cls-44" x="313.05" y="289.73" width="0.06" height="5.62"/><rect class="cls-45" x="313.11" y="289.73" width="0.06" height="5.62"/><rect class="cls-46" x="313.16" y="289.73" width="0.06" height="5.62"/><rect class="cls-47" x="313.22" y="289.73" width="0.06" height="5.62"/><rect class="cls-48" x="313.28" y="289.73" width="0.06" height="5.62"/><rect class="cls-49" x="313.34" y="289.73" width="0.06" height="5.62"/><rect class="cls-50" x="313.4" y="289.73" width="0.06" height="5.62"/><rect class="cls-51" x="313.46" y="289.73" width="0.06" height="5.62"/><rect class="cls-52" x="313.51" y="289.73" width="0.06" height="5.62"/><rect class="cls-53" x="313.57" y="289.73" width="0.06" height="5.62"/><rect class="cls-54" x="313.63" y="289.73" width="0.06" height="5.62"/><rect class="cls-55" x="313.69" y="289.73" width="0.06" height="5.62"/><rect class="cls-56" x="313.75" y="289.73" width="0.06" height="5.62"/><rect class="cls-57" x="313.8" y="289.73" width="0.06" height="5.62"/><rect class="cls-58" x="313.86" y="289.73" width="0.06" height="5.62"/><rect class="cls-59" x="313.92" y="289.73" width="0.06" height="5.62"/><rect class="cls-60" x="313.98" y="289.73" width="0.06" height="5.62"/><rect class="cls-61" x="314.04" y="289.73" width="0.06" height="5.62"/><rect class="cls-62" x="314.09" y="289.73" width="0.06" height="5.62"/><rect class="cls-63" x="314.15" y="289.73" width="0.06" height="5.62"/><rect class="cls-64" x="314.21" y="289.73" width="0.06" height="5.62"/><rect class="cls-65" x="314.27" y="289.73" width="0.06" height="5.62"/><rect class="cls-66" x="314.33" y="289.73" width="0.06" height="5.62"/><rect class="cls-67" x="314.38" y="289.73" width="0.06" height="5.62"/><rect class="cls-68" x="314.44" y="289.73" width="0.06" height="5.62"/><rect class="cls-69" x="314.5" y="289.73" width="0.06" height="5.62"/><rect class="cls-70" x="314.56" y="289.73" width="0.06" height="5.62"/><rect class="cls-71" x="314.62" y="289.73" width="0.06" height="5.62"/><rect class="cls-72" x="314.67" y="289.73" width="0.06" height="5.62"/><rect class="cls-73" x="314.73" y="289.73" width="0.06" height="5.62"/><rect class="cls-74" x="314.79" y="289.73" width="0.06" height="5.62"/><rect class="cls-75" x="314.85" y="289.73" width="0.06" height="5.62"/><rect class="cls-76" x="314.91" y="289.73" width="0.06" height="5.62"/><rect class="cls-77" x="314.97" y="289.73" width="0.06" height="5.62"/><rect class="cls-78" x="315.02" y="289.73" width="0.06" height="5.62"/><rect class="cls-79" x="315.08" y="289.73" width="0.06" height="5.62"/><rect class="cls-80" x="315.14" y="289.73" width="0.06" height="5.62"/></g><path class="cls-104" d="M314.07,291s-1.52.83-1.41,1.09a.45.45,0,0,0,.3.3l-.47.62s-.08.59.59.5c0,0-.13.54.5.38,0,0,.07.4.38.37a5.68,5.68,0,0,0,1.25-.59s.15-.22-.14-.55a.6.6,0,0,0-.13-.66.67.67,0,0,0-.25-.62s.14-.74-.46-.91Z"/><g class="cls-105"><rect class="cls-16" x="308.81" y="285.47" width="0.09" height="5.37"/><rect class="cls-17" x="308.9" y="285.47" width="0.09" height="5.37"/><rect class="cls-18" x="309" y="285.47" width="0.1" height="5.37"/><rect class="cls-19" x="309.09" y="285.47" width="0.09" height="5.37"/><rect class="cls-20" x="309.19" y="285.47" width="0.09" height="5.37"/><rect class="cls-21" x="309.28" y="285.47" width="0.09" height="5.37"/><rect class="cls-22" x="309.38" y="285.47" width="0.09" height="5.37"/><rect class="cls-23" x="309.47" y="285.47" width="0.09" height="5.37"/><rect class="cls-24" x="309.57" y="285.47" width="0.09" height="5.37"/><rect class="cls-25" x="309.66" y="285.47" width="0.09" height="5.37"/><rect class="cls-26" x="309.76" y="285.47" width="0.1" height="5.37"/><rect class="cls-27" x="309.85" y="285.47" width="0.09" height="5.37"/><rect class="cls-28" x="309.95" y="285.47" width="0.09" height="5.37"/><rect class="cls-29" x="310.04" y="285.47" width="0.09" height="5.37"/><rect class="cls-30" x="310.14" y="285.47" width="0.09" height="5.37"/><rect class="cls-31" x="310.23" y="285.47" width="0.09" height="5.37"/><rect class="cls-32" x="310.33" y="285.47" width="0.09" height="5.37"/><rect class="cls-33" x="310.42" y="285.47" width="0.09" height="5.37"/><rect class="cls-34" x="310.52" y="285.47" width="0.1" height="5.37"/><rect class="cls-35" x="310.61" y="285.47" width="0.09" height="5.37"/><rect class="cls-36" x="310.71" y="285.47" width="0.09" height="5.37"/><rect class="cls-37" x="310.8" y="285.47" width="0.09" height="5.37"/><rect class="cls-38" x="310.9" y="285.47" width="0.09" height="5.37"/><rect class="cls-39" x="310.99" y="285.47" width="0.09" height="5.37"/><rect class="cls-40" x="311.08" y="285.47" width="0.09" height="5.37"/><rect class="cls-41" x="311.18" y="285.47" width="0.09" height="5.37"/><rect class="cls-42" x="311.27" y="285.47" width="0.09" height="5.37"/><rect class="cls-43" x="311.37" y="285.47" width="0.09" height="5.37"/><rect class="cls-44" x="311.46" y="285.47" width="0.09" height="5.37"/><rect class="cls-45" x="311.56" y="285.47" width="0.1" height="5.37"/><rect class="cls-46" x="311.65" y="285.47" width="0.09" height="5.37"/><rect class="cls-47" x="311.75" y="285.47" width="0.09" height="5.37"/><rect class="cls-48" x="311.84" y="285.47" width="0.09" height="5.37"/><rect class="cls-49" x="311.94" y="285.47" width="0.09" height="5.37"/><rect class="cls-50" x="312.03" y="285.47" width="0.09" height="5.37"/><rect class="cls-51" x="312.13" y="285.47" width="0.09" height="5.37"/><rect class="cls-52" x="312.22" y="285.47" width="0.09" height="5.37"/><rect class="cls-53" x="312.32" y="285.47" width="0.1" height="5.37"/><rect class="cls-54" x="312.41" y="285.47" width="0.09" height="5.37"/><rect class="cls-55" x="312.51" y="285.47" width="0.09" height="5.37"/><rect class="cls-56" x="312.6" y="285.47" width="0.09" height="5.37"/><rect class="cls-57" x="312.7" y="285.47" width="0.09" height="5.37"/><rect class="cls-58" x="312.79" y="285.47" width="0.09" height="5.37"/><rect class="cls-59" x="312.89" y="285.47" width="0.09" height="5.37"/><rect class="cls-60" x="312.98" y="285.47" width="0.09" height="5.37"/><rect class="cls-61" x="313.08" y="285.47" width="0.09" height="5.37"/><rect class="cls-62" x="313.17" y="285.47" width="0.1" height="5.37"/><rect class="cls-63" x="313.27" y="285.47" width="0.09" height="5.37"/><rect class="cls-64" x="313.36" y="285.47" width="0.09" height="5.37"/><rect class="cls-65" x="313.46" y="285.47" width="0.09" height="5.37"/><rect class="cls-66" x="313.55" y="285.47" width="0.09" height="5.37"/><rect class="cls-67" x="313.65" y="285.47" width="0.09" height="5.37"/><rect class="cls-68" x="313.74" y="285.47" width="0.09" height="5.37"/><rect class="cls-69" x="313.83" y="285.47" width="0.09" height="5.37"/><rect class="cls-70" x="313.93" y="285.47" width="0.1" height="5.37"/><rect class="cls-71" x="314.03" y="285.47" width="0.09" height="5.37"/><rect class="cls-72" x="314.12" y="285.47" width="0.09" height="5.37"/><rect class="cls-73" x="314.21" y="285.47" width="0.09" height="5.37"/><rect class="cls-74" x="314.31" y="285.47" width="0.09" height="5.37"/><rect class="cls-75" x="314.4" y="285.47" width="0.09" height="5.37"/><rect class="cls-76" x="314.5" y="285.47" width="0.09" height="5.37"/><rect class="cls-77" x="314.59" y="285.47" width="0.09" height="5.37"/><rect class="cls-78" x="314.69" y="285.47" width="0.09" height="5.37"/><rect class="cls-79" x="314.78" y="285.47" width="0.1" height="5.37"/><rect class="cls-80" x="314.88" y="285.47" width="0.09" height="5.37"/></g><path class="cls-10" d="M311.42,292.17a5.72,5.72,0,0,1,1.84.23c.15.06.28.14.28.31s-.23.36-.75.4a4.23,4.23,0,0,0-1.15.33S311.1,293.32,311.42,292.17Z"/><path class="cls-106" d="M299.74,334.37l-.27,1.44-3-8C296.83,328.59,299.74,334.37,299.74,334.37Z"/><rect class="cls-14" x="78.73" y="150.45" width="60.62" height="88.34" rx="6.4" ry="6.4"/><rect class="cls-107" x="129.77" y="207.5" width="3.14" height="23.9"/><rect class="cls-107" x="123.56" y="210.18" width="3.14" height="21.22"/><rect class="cls-107" x="116.82" y="213.66" width="3.14" height="17.74"/><rect class="cls-107" x="109.9" y="218.05" width="3.14" height="13.35"/><polygon class="cls-107" points="91.16 215.22 90.47 214.98 96.4 198.36 109.24 194.97 113.86 176.73 123.77 172.36 125.99 158.18 126.7 158.29 124.42 172.86 114.47 177.25 109.84 195.56 96.95 198.97 91.16 215.22"/><path class="cls-14" d="M111,194a1.93,1.93,0,1,1-2.71-.27A1.92,1.92,0,0,1,111,194Z"/><path class="cls-107" d="M111,197a2.29,2.29,0,1,1,.32-3.22A2.29,2.29,0,0,1,111,197Zm-2.44-3a1.56,1.56,0,1,0,2.2.22A1.56,1.56,0,0,0,108.55,194.05Z"/><path class="cls-14" d="M115.71,175.88a1.93,1.93,0,1,1-2.71-.27A1.93,1.93,0,0,1,115.71,175.88Z"/><path class="cls-107" d="M115.67,178.87a2.29,2.29,0,1,1,.32-3.22A2.3,2.3,0,0,1,115.67,178.87Zm-2.44-3a1.56,1.56,0,1,0,2.2.22A1.57,1.57,0,0,0,113.23,175.89Z"/><path class="cls-14" d="M125.47,171.38a1.93,1.93,0,1,1-2.71-.27A1.93,1.93,0,0,1,125.47,171.38Z"/><path class="cls-107" d="M125.42,174.37a2.28,2.28,0,1,1,.33-3.22A2.29,2.29,0,0,1,125.42,174.37Zm-2.44-3a1.57,1.57,0,1,0,2.21.22A1.58,1.58,0,0,0,123,171.39Z"/><path class="cls-14" d="M98.24,197.61a1.93,1.93,0,1,1-2.71-.27A1.93,1.93,0,0,1,98.24,197.61Z"/><path class="cls-107" d="M98.19,200.6a2.28,2.28,0,1,1,.33-3.22A2.3,2.3,0,0,1,98.19,200.6Zm-2.44-3a1.57,1.57,0,1,0,2.21.22A1.58,1.58,0,0,0,95.75,197.62Z"/><rect class="cls-108" x="85.17" y="175.52" width="19.3" height="4" rx="1.38" ry="1.38"/><rect class="cls-108" x="85.17" y="168.53" width="19.3" height="4" rx="1.38" ry="1.38"/><path class="cls-11" d="M71.32,182.74s-.56,5.51.46,6.9c0,0-2.7-.59-3.32-1.52S71.32,182.74,71.32,182.74Z"/><path class="cls-10" d="M88.17,200.36l1.13-.76a3,3,0,0,1,1.24,0,3.26,3.26,0,0,1,1.36.51.47.47,0,0,1,.1.41,1,1,0,0,1-.21.45.58.58,0,0,1-.12.56.52.52,0,0,1-.22.53s.07.32-.16.45a4.8,4.8,0,0,0-.69,0,8.11,8.11,0,0,1-2.22-.3S87.27,202,88.17,200.36Z"/><path class="cls-93" d="M89.84,200.81a3,3,0,0,1-.45.62c-.16.1.75,1.08.75,1.08S90.46,201.19,89.84,200.81Z"/><path class="cls-10" d="M87.59,200.45a4.21,4.21,0,0,0,1-.24c.38-.18-.07,1.92-.07,1.92a3.92,3.92,0,0,0-1.53-.66C86.39,201.45,87.59,200.45,87.59,200.45Z"/><path class="cls-109" d="M62.07,256.22a33.83,33.83,0,0,0,2.6,3.41s1.34.7,1.38,1.26c.08,1.05.13,1.67-1.63,1.72s-2.88,0-3.2-1.08a8,8,0,0,0-.88-1.91l-.14,2.79h-.39s-.18-2.79-.21-3.19-.28-1.93.56-2.61A2.32,2.32,0,0,1,62.07,256.22Z"/><path class="cls-109" d="M64.92,259.78a4.41,4.41,0,0,1-2.09,0c-1.14-.29-2.23-3-2.56-3.23l-.3-1.1h2.22a4,4,0,0,0,.38,1.51A26,26,0,0,0,64.92,259.78Z"/><path class="cls-109" d="M74.57,255.17a7.32,7.32,0,0,0,.83,1.39c.4.52,1.65,2.66,2.19,2.81s2.24.45,2.39,1.4.23,1.62-1.44,1.69-2.76.17-3.56-1a8.62,8.62,0,0,0-2.07-2v3.05h-.64a26.6,26.6,0,0,0-.48-3.4,3.85,3.85,0,0,1,.92-3.93C74.26,253.9,74.57,255.17,74.57,255.17Z"/><path class="cls-109" d="M77.59,259.37s-1.49.38-2.06,0-2.52-3.66-3.17-3.86c0,0,.63-1.26,2.21-.34C74.57,255.17,77.17,258.83,77.59,259.37Z"/><path class="cls-110" d="M61.22,209.45a15.61,15.61,0,0,0-2.68,6c-.57,3.25.34,14.15.31,15.76s-1.41,6.6-1.11,9.62,1.86,15.65,1.86,15.65l3.65-.07s-.73-13.62-.55-14.89.79-6.67.86-7.19,4.16-14.35,4.16-16.69S66.3,205.63,61.22,209.45Z"/><path class="cls-110" d="M71.8,210.52s3.46,13.21,3.87,15,1.23,4.22,1.2,4.55-.44,6-.44,6l-1,19.19H71.8s-1.17-12.21-1.36-14.68,1.35-6.27,1-7.31-6-13.11-6-13.11S61.13,206.69,71.8,210.52Z"/><path class="cls-89" d="M70.73,190.76A4.2,4.2,0,0,1,73.16,192a16.4,16.4,0,0,1,2.3,3.5c.27.6,4.11,6.13,4.31,6.26s1.88-.32,3.22-.43a29.4,29.4,0,0,0,5.48-1.3l.48,2.48s-8.07,2.6-9.93,2.14c-2.28-.56-7.52-7.28-7.52-7.28S67.59,192.8,70.73,190.76Z"/><path class="cls-89" d="M68.31,189.78a19.62,19.62,0,0,0,2.42,1c.62.12,3,3.26,3.46,4.4s0,2.86-.87,4.88,0,2.69-.45,4.71a55.39,55.39,0,0,0-.32,8.63c.07,1.12-11.53,3.23-13.84,1.19,0,0,1.56-5.17,3.42-7.11.4-.42.36-3.21.09-3.91s-3.37-5.9-3.37-5.9-.22-5.28,1.12-6.32c1.17-.91,4.36-1.23,4.94-1.43A9.78,9.78,0,0,1,68.31,189.78Z"/><path class="cls-111" d="M68.89,193.78,70,192.5l-1-3.35A21.84,21.84,0,0,0,68.89,193.78Z"/><path class="cls-10" d="M62.06,190.76a3.11,3.11,0,0,0-3.55,1.84c-1.3,2.49-1,3.83-1.27,5s-1.5,8.61-1.57,8.94-1.22,4.13-1.07,5.3,1.22,10,1.17,10.33,2.06-.29,2.06-.29-.08-9,0-9.79.15-4.67.71-5.68,1.94-7.17,2.24-7.8S64,191.56,62.06,190.76Z"/><path class="cls-10" d="M69.17,187.72a41.27,41.27,0,0,0-.28,4.36s-1.87,1.86-4-2.18a5.57,5.57,0,0,0,.22-3.94C64.46,183.69,69.17,187.72,69.17,187.72Z"/><polygon class="cls-10" points="68.89 192.07 68.89 193.78 66.89 192.01 68.89 192.07"/><polygon class="cls-111" points="68.89 193.78 68 192.68 65 189.69 63.88 190.19 68.89 193.78"/><polygon class="cls-112" points="69.98 192.5 71.35 192.88 69.03 189.15 69.98 192.5"/><polygon class="cls-112" points="68 192.68 66.74 194.69 63.83 190.12 65.08 189.48 68 192.68"/><path class="cls-111" d="M74.38,200.78a15.11,15.11,0,0,0,0-4.79s-.26,1.46-.9,3.74Z"/><path class="cls-111" d="M60.46,200.39l1.31-4.33a34.29,34.29,0,0,1-.56,5.64S60.76,200.9,60.46,200.39Z"/><polygon class="cls-113" points="106.62 179.84 87.12 204.41 87.8 204.94 106.62 179.84"/><path class="cls-104" d="M91.75,200.08s-1.46-.14-1.51.09a.38.38,0,0,0,.07.35l-.63.22s-.33.38.18.63c0,0-.35.32.17.51,0,0-.14.31.09.44a4.89,4.89,0,0,0,1.17.18s.21-.08.16-.45a.5.5,0,0,0,.22-.53.55.55,0,0,0,.12-.56s.46-.45.11-.86Z"/><path class="cls-10" d="M89.35,199.6a5.33,5.33,0,0,1,1.19,1c.07.12.13.24,0,.35s-.34.15-.72-.07a3.92,3.92,0,0,0-1-.32S88.57,200.27,89.35,199.6Z"/><path class="cls-10" d="M67.66,176.53s3.3-.09,3.91,3.82-.8,7.34-1.35,7.88-3.85.14-4.63-1.89-1.91-3.51-1.74-5.25S63.6,176.46,67.66,176.53Z"/><path class="cls-11" d="M71.71,181.82s.88-4.87-3.5-5.74-5.92,2.12-6.33,3.91.07,6.8.07,6.8A22.88,22.88,0,0,0,66.62,190s-1.46-5.35-.91-9.18a18.72,18.72,0,0,0,5.92,0S71.7,181.62,71.71,181.82Z"/><path class="cls-12" d="M69.09,188.45a5.6,5.6,0,0,1-2.7-1A6.41,6.41,0,0,0,69,189.31,7,7,0,0,0,69.09,188.45Z"/><rect class="cls-114" x="50.52" y="214.59" width="12.91" height="9.55" transform="matrix(0.99, -0.16, 0.16, 0.99, -34.61, 12.05)"/><path class="cls-10" d="M55.33,225a1.71,1.71,0,0,1-.22-.51s0-.34,0-.58a.82.82,0,0,0,0-.18,3.1,3.1,0,0,1-.15-1,22,22,0,0,1,.64-2.36l1.13,0,1.06-.11a21.76,21.76,0,0,1,1.31,2.87v.12a4.38,4.38,0,0,1-.21.81c0,.06-.17.74-.35.84a.7.7,0,0,1-.66,0,1.65,1.65,0,0,1-.89.13,1,1,0,0,1-.89,0S55.55,225.17,55.33,225Z"/><path class="cls-89" d="M62.06,190.76a3.11,3.11,0,0,0-3.55,1.84A11.44,11.44,0,0,0,57,197.36c-.16,1.15-1.74,8-1.81,8.29s-.6,4.59-.63,6.14c0,1.18.25,8.91.2,9.21s3.57-.52,3.57-.52-.4-7.13-.32-7.88a41.22,41.22,0,0,1,.59-5.56c.43-1.29,2.13-7.76,2.42-8.4S64,191.56,62.06,190.76Z"/><path class="cls-115" d="M178.82,257.78l.23-2.19a16.94,16.94,0,0,0-3.45.24s.27,1.84.3,2.11S178.82,257.78,178.82,257.78Z"/><path class="cls-116" d="M173.57,262.36c3.67,0,5.44.22,5.84-.38s-.57-4.4-.57-4.4a7.65,7.65,0,0,1-3,.13,7.87,7.87,0,0,1-1.8,1.59c-.89.48-2.28.67-2.8,1.17S169.9,262.39,173.57,262.36Z"/><path class="cls-115" d="M158.14,257.78l.24-2.19a16.94,16.94,0,0,0-3.45.24s.26,1.84.3,2.11S158.14,257.78,158.14,257.78Z"/><path class="cls-116" d="M152.9,262.36c3.67-.1,5.44.22,5.83-.38s-.57-4.4-.57-4.4a6.94,6.94,0,0,1-3,.13,7.87,7.87,0,0,1-1.8,1.59c-.89.48-4.14.88-4.66,1.38S147.73,262.49,152.9,262.36Z"/><path class="cls-4" d="M174.58,208.38a27.29,27.29,0,0,1,1.33,8.49c-.2,3.93.8,8.23,1.2,12.34.46,4.57,2.31,15.41,2.38,17.86s-.29,10.26-.29,10.26l-3.72.09s-3.12-18.94-3.93-20.88-4.82-15.71-5-17.26S174.58,208.38,174.58,208.38Z"/><path class="cls-4" d="M158.94,209.19s-2,10.77-2.31,13.18-.45,11.64-.58,13.14-.9,19.68-1.62,21.91h4.75s3.65-13.21,3.65-19.46,2.82-13.59,4.64-17.71,6-4.22,7.11-11.87C174.58,208.38,160.46,206.76,158.94,209.19Z"/><path class="cls-10" d="M168.61,172.37s-3.75-1.4-5.48,1.45-1.56,8.57.33,9.27,4.72.33,5.69-1.45a14.32,14.32,0,0,0,1.8-6.09A3.75,3.75,0,0,0,168.61,172.37Z"/><path class="cls-10" d="M164.09,182.91a3.17,3.17,0,0,1-.1,1.47c-.25.48,4.71.5,4.71.5a32,32,0,0,1,1.17-4.86C170.63,177.8,164.09,182.91,164.09,182.91Z"/><path class="cls-117" d="M169.87,180s-.34.56-1.74.35-3.11-2.08-3.69-2.29-.59-.55-.59-.55l-.37.54-.62,0s.57-1.67-.28-2.35.88-5.38,5.37-3.82c0,0,3.21.64,3.41,2.59A9,9,0,0,1,169.87,180Z"/><path class="cls-118" d="M163.69,184.32s0-.92.44-1a29,29,0,0,1,5.14-.29v1.07S168.28,184.7,163.69,184.32Z"/><path class="cls-10" d="M163.94,176.82c.08-.33.92-1.27,1.24-.26s-.49,2.36-.94,2.24S163.74,177.65,163.94,176.82Z"/><path class="cls-66" d="M163.69,184.32s-2.3.83-5,2a5.59,5.59,0,0,0-3.4,4.54c-.18,1.8-2.1,11.36-2.46,12.17s-4.61,13.8-4.76,14.07,3.47,1.78,3.71,1.66,4.12-11.86,4.51-12.73c0,0,2.23-7,2.29-8.08,0,0,.07,3,.19,3.83s-2,17.13-1.93,17.58,9.57,1,13.38.6a46.26,46.26,0,0,0,6.87-1.3s-3-12.85-2.9-14.28c.2-3.11,1.24-8.95,1.24-8.95l3.1,5.84-4,10.22.91,3.11s7.38-11.15,7.62-12.17a5.49,5.49,0,0,0-.75-3.16c-.39-.84-3-7.22-3.55-8.12s-1.61-4.5-4.06-5.5a38.39,38.39,0,0,0-5.48-1.53Z"/><rect class="cls-119" x="142.51" y="208.41" width="17.95" height="12.52" transform="translate(58.06 -30.9) rotate(14.38)"/><path class="cls-120" d="M146.58,219.72s-.5.81-.68,1,.45.37.71.14S146.58,219.72,146.58,219.72Z"/><path class="cls-121" d="M150.2,222.47a2.11,2.11,0,0,0,.36-.51s.08-.36.16-.62c0-.08.05-.15.07-.19a3.79,3.79,0,0,0,.4-1.06c.07-.5.29-2.72.29-2.72l-1.35-.34-1.08-.23a21.41,21.41,0,0,0-2.46,2.79l0,.13a5.12,5.12,0,0,0,0,.93c0,.07,0,.85.19,1a.76.76,0,0,0,.72.17,1.71,1.71,0,0,0,.92.35,1.13,1.13,0,0,0,1,.18S149.9,222.66,150.2,222.47Z"/><path class="cls-66" d="M155.46,208.4s-3.09,9.34-3.66,10.33a10.21,10.21,0,0,1-3.71-1.66L151.48,207Z"/><path class="cls-122" d="M433.84,223s11.45-33.59-10.41-44S383,183.6,379.51,191.75s-2.58,23,.41,33.29,2.56,26.05-3.94,31.31-14.55,14-14.15,31.77c.25,11,43.4-28.21,43.4-28.21Z"/><path class="cls-96" d="M403.12,262.93s-18,4-25.09,8.15-23,23.34-23,31.58,69.26,15.95,69.26,15.95l13.12,47.92s35-8.54,39.18-15.63-13.3-57.86-16.29-68.13c-3.05-10.49-15.59-17.8-30.18-19.84A100.35,100.35,0,0,0,403.12,262.93Z"/><path class="cls-10" d="M428.9,262.77s-.4,21.83-17.72,22.48-13.71-20.94-13.71-20.94S410.13,259.17,428.9,262.77Z"/><path class="cls-122" d="M436.23,196.87s6.13,35.12-11.32,60.49C406.84,283.64,436.23,196.87,436.23,196.87Z"/><path class="cls-10" d="M425.19,247.33s-1.21,10.44.8,16.94-26.48,6.67-26.46,1.33c0-6.07,2.91-11.14.18-21.54S425.19,247.33,425.19,247.33Z"/><path class="cls-12" d="M403.09,248.66s9,9.37,20.49,1c0,0-.95,6-9.22,6.76S403.09,248.66,403.09,248.66Z"/><path class="cls-10" d="M414.35,184.69s22.74,6.73,19.49,38.28-18.1,29.93-19.49,30.16-19,1.39-24.59-36.89S414.35,184.69,414.35,184.69Z"/><path class="cls-122" d="M408.48,198.76s12.36,19.65,25.36,24.21c0,0,7.1-33-22.22-39.88s-24.73,33.3-22.55,44A87.19,87.19,0,0,1,408.48,198.76Z"/><path class="cls-30" d="M391.91,195.8s6.51-12.59,17.49-13.15,17.51,9,17.51,9a18.68,18.68,0,0,0-17.5-10.73C396.2,180.88,391.91,195.8,391.91,195.8Z"/><polygon class="cls-14" points="436.62 294.85 444.33 366.52 342.85 366.52 335.14 294.85 436.62 294.85"/><path class="cls-123" d="M441.88,364.06H339.52l-7.81-72.56H434.08Zm-101.57-.88H440.9l-7.62-70.79H332.7Z"/><path class="cls-81" d="M396,329.53c.91,4.46-1.17,8.65-4.65,9.36s-7-2.33-7.94-6.79,1.17-8.65,4.64-9.36S395.12,325.07,396,329.53Z"/><rect class="cls-123" x="434.73" y="359.32" width="18.94" height="7.21" transform="translate(888.4 725.84) rotate(180)"/><path class="cls-3" d="M375.86,151.31a15.62,15.62,0,1,1,15.61-15.61A15.63,15.63,0,0,1,375.86,151.31Zm0-30.34a14.73,14.73,0,1,0,14.72,14.73A14.75,14.75,0,0,0,375.86,121Z"/><path class="cls-124" d="M100.54,310V308.7c2.65,0,5.32-.1,7.93-.22l.06,1.32C105.89,309.93,103.21,310,100.54,310Zm-8-.08c-2.62-.07-5.31-.19-8-.36l.08-1.33c2.66.17,5.33.29,7.94.37Zm23.93-.67-.11-1.32c2.62-.23,5.27-.51,7.88-.85l.17,1.32C121.8,308.76,119.13,309,116.49,309.27Zm-39.87-.33c-2.72-.27-5.39-.61-7.93-1l.21-1.31c2.52.41,5.16.75,7.85,1Zm55.71-1.69-.22-1.3c2.56-.43,5.18-.92,7.8-1.46l.27,1.3C137.54,306.33,134.9,306.82,132.33,307.25Zm-71.49-.92c-2.67-.64-5.26-1.4-7.7-2.23l.44-1.26c2.39.82,4.94,1.57,7.57,2.2ZM148,304.05l-.31-1.29c2.43-.59,5-1.23,7.7-2l.34,1.28C152.94,302.82,150.41,303.46,148,304.05Zm-102.26-3a57.58,57.58,0,0,1-7-3.94l.74-1.11a57.56,57.56,0,0,0,6.84,3.86ZM163.38,300,163,298.7l3.3-.94,4.37-1.23.35,1.28L166.68,299Zm69.19-1.11c-2.45-1.15-4.9-2.18-7.29-3l.45-1.25c2.43.87,4.92,1.91,7.41,3.08Zm-53.86-3.12-.32-1.28c2.85-.73,5.4-1.33,7.78-1.82l.26,1.3C184.08,294.43,181.55,295,178.71,295.74Zm39-2.14a62.76,62.76,0,0,0-7.76-1.28l.13-1.32a63.64,63.64,0,0,1,7.93,1.31Zm-23.49-1-.17-1.31a75.28,75.28,0,0,1,8-.62l0,1.33A75.42,75.42,0,0,0,194.23,292.62Zm-161.87-.46a44.9,44.9,0,0,1-5.39-6l1.07-.79a43.46,43.46,0,0,0,5.23,5.82Zm-9.59-12.88a46.59,46.59,0,0,1-2.9-7.53l1.27-.37A46.11,46.11,0,0,0,24,278.69Zm-4.55-15.41a63.43,63.43,0,0,1-.54-8H19a60.65,60.65,0,0,0,.53,7.86ZM19.4,248l-1.32-.14c.26-2.6.67-5.27,1.19-7.94l1.3.26C20.05,242.77,19.66,245.4,19.4,248Zm3-15.5-1.28-.37a70.38,70.38,0,0,1,2.61-7.62L25,225A72.07,72.07,0,0,0,22.44,232.46Z"/><path class="cls-124" d="M444.12,71.39s-2.24-2-6.21-4.93l.8-1.07c4,3,6.27,5,6.29,5Zm-12.7-9.51c-2.18-1.45-4.44-2.88-6.71-4.25l.69-1.14c2.28,1.38,4.56,2.82,6.76,4.29Zm-13.6-8.18c-2.33-1.26-4.71-2.47-7.07-3.6l.57-1.2c2.38,1.14,4.78,2.36,7.13,3.63Zm-14.31-6.85c-2.46-1-4.94-2-7.4-2.86l.45-1.25c2.47.88,5,1.85,7.46,2.89ZM302.66,45.23l0-1.33a56.73,56.73,0,0,0,7.83-.73l.21,1.31A57.8,57.8,0,0,1,302.66,45.23Zm-8-.42a57.54,57.54,0,0,1-7.89-1.55l.34-1.28a58.32,58.32,0,0,0,7.71,1.52Zm23.88-2.14-.38-1.27c.86-.25,1.72-.53,2.59-.82,1.65-.55,3.35-1.07,5-1.55l.36,1.28c-1.65.47-3.32,1-5,1.53C320.26,42.14,319.38,42.42,318.51,42.67Zm70.06-1.14c-2.54-.75-5.12-1.43-7.66-2l.3-1.29c2.56.59,5.17,1.28,7.74,2Zm-109.45-.78c-2.34-.91-4.74-2-7.33-3.22l.58-1.2c2.56,1.24,4.93,2.28,7.23,3.18Zm54.67-2.29-.26-1.3c2.6-.52,5.26-.95,7.91-1.28l.16,1.32C339,37.52,336.36,37.94,333.79,38.46ZM373.14,38c-2.61-.43-5.26-.78-7.85-1l.13-1.32c2.62.26,5.29.61,7.94,1ZM139.9,36.71l-.72-1.12c2.27-1.47,4.55-2.9,6.77-4.23l.68,1.14C144.43,33.82,142.16,35.24,139.9,36.71Zm209.58-.18-.06-1.32c2.64-.13,5.33-.15,8-.08l0,1.32C354.74,36.38,352.09,36.41,349.48,36.53Zm-84.79-2.67c-2.25-1.23-4.48-2.48-7-3.88l.65-1.16c2.47,1.4,4.7,2.65,6.94,3.87ZM153.5,28.52l-.64-1.16c2.38-1.31,4.76-2.56,7.08-3.71l.59,1.19C158.23,26,155.87,27.22,153.5,28.52Zm97.29-2.42c-2.6-1.43-4.89-2.64-7-3.7l.59-1.19c2.14,1.07,4.46,2.29,7.07,3.72Zm-83.08-4.61-.53-1.22c2.5-1.08,5-2.09,7.43-3l.45,1.24C172.66,19.42,170.19,20.41,167.71,21.49Zm68.87-2.42c-2.54-1.07-5-2-7.39-2.78L229.6,15c2.47.81,4.92,1.73,7.5,2.82Zm-54-3-.36-1.27c2.61-.76,5.23-1.4,7.78-1.92l.26,1.3C187.75,14.7,185.17,15.34,182.58,16.08Zm39-1.86A72,72,0,0,0,213.8,13l.15-1.32a74.44,74.44,0,0,1,7.91,1.29ZM198.06,13l-.14-1.31a77.73,77.73,0,0,1,8-.45v1.33A75,75,0,0,0,198.06,13Z"/><polygon class="cls-125" points="278.75 313.43 245.39 303.73 255.39 300.71 278.75 313.43"/><polygon class="cls-126" points="278.75 313.43 266.28 300.9 258.61 302.46 278.75 313.43"/><polygon class="cls-127" points="253.06 305.96 253.33 309.82 278.75 313.43 253.06 305.96"/><polygon class="cls-125" points="110.85 58.77 140.26 42.33 130.15 41.66 110.85 58.77"/><polygon class="cls-126" points="110.85 58.77 119.9 44.22 127.49 44.02 110.85 58.77"/><polygon class="cls-127" points="133.49 46.11 134.08 49.81 110.85 58.77 133.49 46.11"/></svg>